<svg xmlns="http://www.w3.org/2000/svg" viewBox="0 0 200 200">  
  <path
    d="M 98.00 5.17 C 104.82 5.06 112.69 6.53 118.19 10.81 C 120.78 13.16 123.44 15.63 125.58 18.40 C 129.75 25.42 132.55 33.20 133.59 41.31 C 133.91 45.08 135.96 47.90 138.25 50.75 C 140.33 52.96 143.86 53.73 146.70 54.43 C 157.39 56.97 167.47 60.90 177.39 65.59 C 181.41 67.49 185.56 69.00 188.05 72.95 C 192.28 78.31 192.57 85.51 192.27 92.04 C 191.92 97.05 187.59 100.59 183.14 102.13 C 175.55 104.86 168.02 107.73 160.42 110.42 C 158.53 111.16 156.55 111.84 155.07 113.29 C 154.69 114.40 154.92 115.36 155.78 116.17 C 158.88 119.85 161.09 124.13 164.13 127.86 C 166.94 132.04 170.11 135.95 172.77 140.23 C 178.95 149.10 186.46 158.25 190.84 168.16 C 193.27 173.56 194.45 179.25 193.11 185.11 C 192.51 187.56 190.55 189.44 188.17 190.16 C 182.09 192.33 176.34 192.02 170.01 192.24 C 157.67 192.62 145.34 192.93 133.00 193.34 C 128.33 193.40 122.63 193.78 118.32 191.75 C 112.89 186.39 111.01 180.14 107.34 173.67 C 104.98 169.37 103.20 164.73 100.30 160.88 C 96.11 168.60 92.36 176.54 88.36 184.36 C 87.15 187.02 84.92 188.05 82.70 189.72 C 79.89 191.72 76.49 192.72 73.04 192.62 C 56.07 192.56 39.05 192.66 22.09 192.58 C 16.79 192.14 9.84 188.98 8.88 183.10 C 7.08 174.62 9.46 165.90 13.30 158.31 C 16.98 151.69 21.93 146.24 26.03 140.02 C 32.49 131.28 38.81 122.51 45.35 113.82 C 42.23 110.34 37.51 110.25 33.32 108.65 C 28.00 106.69 22.65 104.74 17.37 102.66 C 12.14 100.46 9.42 95.54 8.93 90.05 C 8.57 84.74 8.18 78.42 10.41 73.47 C 13.70 68.64 18.43 65.91 23.69 63.68 C 31.87 60.20 40.20 57.23 48.76 54.83 C 52.50 53.86 55.88 52.39 58.67 49.65 C 62.38 44.92 61.09 39.79 62.34 34.29 C 64.22 27.07 66.37 20.07 71.28 14.28 C 78.92 7.91 88.24 5.62 98.00 5.17 Z"
    stroke="black"
    stroke-width="8"
    fill="#E53935"
  />
</svg>
