<svg xmlns="http://www.w3.org/2000/svg">
  <symbol id="ABBEY_AND_MAYOR" viewBox="0 0 80 80">
    <path d="M 38.89 12.72 C 40.88 12.30 42.35 13.17 44.03 14.05 C 55.03 20.33 66.23 26.47 77.24 32.73 C 79.77 34.11 79.73 36.18 80.00 38.82 L 80.00 63.55 L 79.69 65.97 C 79.33 68.41 76.86 67.92 75.03 68.04 C 71.70 67.92 68.33 68.18 65.00 67.88 C 62.34 66.55 64.17 61.99 62.34 59.63 C 59.52 54.58 52.90 53.60 48.96 57.97 C 46.17 60.80 47.31 63.87 46.15 67.11 C 44.25 68.74 40.37 67.86 38.00 67.94 C 36.40 68.06 35.68 66.42 35.66 65.06 C 35.45 61.42 36.04 57.30 35.27 53.73 C 34.06 49.26 30.45 45.89 25.88 45.07 C 20.70 44.18 15.40 47.59 13.57 52.43 C 11.89 56.61 13.33 62.26 12.50 66.52 C 11.35 68.63 9.02 67.82 7.01 68.05 C 4.68 67.82 1.45 68.76 0.00 66.45 L 0.00 35.65 C 1.03 32.81 3.39 32.16 5.76 30.75 C 14.59 25.93 23.37 21.03 32.18 16.18 C 34.36 15.00 36.57 13.52 38.89 12.72 Z" />
  </symbol>

  <symbol id="BASIC" viewBox="0 0 80 80">
    <path d="M 38.57 0.00 L 51.61 0.00 L 52.54 0.02 L 53.42 0.06 C 60.83 0.50 67.85 -0.15 74.98 1.18 C 73.23 9.21 69.62 16.93 66.51 24.53 C 65.31 24.59 64.12 24.68 62.93 24.79 C 63.94 22.46 65.10 20.17 65.98 17.78 C 66.52 16.73 65.77 14.75 64.49 14.68 C 59.78 13.80 54.79 14.14 50.00 13.92 C 39.81 13.79 29.39 13.31 19.25 14.39 C 17.39 14.59 17.09 16.52 17.09 18.06 C 17.32 23.38 19.40 28.78 21.28 33.72 C 26.07 45.82 32.90 57.11 40.04 67.95 C 41.93 70.61 43.66 73.32 47.15 73.89 C 50.13 74.55 51.89 72.73 53.94 70.94 C 57.02 67.90 59.85 64.62 63.09 61.74 C 63.71 62.84 64.38 63.89 65.12 64.91 C 60.53 71.21 54.21 77.46 46.68 80.00 L 39.30 80.00 C 35.83 78.38 33.07 76.34 30.62 73.39 C 21.90 63.08 14.32 51.71 8.46 39.53 C 6.63 35.58 4.65 31.26 4.09 26.91 C 3.56 24.03 5.82 21.58 7.32 19.34 C 11.08 14.42 14.62 9.32 18.46 4.46 C 20.01 2.73 21.41 0.69 23.95 0.57 C 28.79 0.06 33.70 0.21 38.57 0.00 Z" />
  </symbol>

  <symbol id="BRIDGES_CASTLES_AND_BAZAARS" viewBox="0 0 80 80">
    <path d="M 0.00 18.00 C 26.67 18.00 53.33 18.00 80.00 18.00 L 80.00 61.00 C 76.80 61.01 73.60 61.00 70.39 60.99 C 70.34 55.43 70.84 50.19 69.13 44.80 C 66.97 37.78 61.79 32.02 55.26 28.73 C 46.09 24.12 34.74 24.00 25.45 28.33 C 18.80 31.44 13.41 36.98 11.03 43.98 C 9.04 49.70 9.46 55.07 9.44 60.99 C 6.30 61.00 3.15 61.00 0.00 61.00 L 0.00 18.00 Z" />
  </symbol>

  <symbol id="CORN_CIRCLES" viewBox="0 0 80 80">
    <path d="M 34.08 0.00 L 34.34 0.00 C 37.06 2.69 40.01 4.28 39.30 8.68 C 34.04 8.08 34.70 3.97 34.08 0.00 Z" />
    <path d="M 44.60 -0.11 C 44.37 1.82 44.34 3.92 43.74 5.79 C 43.04 7.58 41.47 7.95 39.94 8.91 C 39.41 5.57 39.46 4.42 42.08 2.14 C 42.92 1.39 43.76 0.63 44.60 -0.11 Z" />
    <path d="M 30.05 4.52 C 30.97 5.05 31.88 5.61 32.80 6.16 C 34.53 7.28 36.96 8.26 38.00 10.10 C 38.85 11.46 39.59 13.61 38.15 14.85 C 32.60 14.90 31.15 8.80 30.05 4.52 Z" />
    <path d="M 49.30 5.11 C 48.00 8.33 47.17 12.25 43.91 14.09 C 42.44 14.88 39.66 15.72 39.72 13.06 C 40.26 8.14 45.73 7.21 49.30 5.11 Z" />
    <path d="M 27.03 10.49 C 28.23 11.10 29.42 11.75 30.63 12.35 C 34.66 14.15 38.50 15.74 38.76 20.81 C 38.34 23.44 35.27 22.47 33.69 21.55 C 29.64 19.19 28.63 14.54 27.03 10.49 Z" />
    <path d="M 51.64 10.43 C 50.13 14.09 49.18 18.52 45.84 20.95 C 44.40 22.11 41.78 23.25 40.16 21.88 C 39.22 18.72 41.58 15.46 44.32 14.13 C 46.78 12.92 49.27 11.82 51.64 10.43 Z" />
    <path d="M 25.96 18.10 C 27.24 18.79 28.49 19.52 29.80 20.17 C 34.12 22.16 38.32 23.61 38.91 29.06 C 39.03 31.50 37.04 31.98 35.09 31.18 C 29.16 29.08 27.96 23.33 25.96 18.10 Z" />
    <path d="M 52.65 18.10 C 51.41 21.00 50.55 24.27 48.87 26.92 C 47.12 29.62 44.27 31.56 40.97 31.54 C 38.56 29.95 39.86 26.99 41.12 25.10 C 43.64 21.55 49.05 20.59 52.65 18.10 Z" />
    <path d="M 52.68 27.04 C 50.62 31.73 49.96 36.51 45.20 39.37 C 43.59 40.31 40.57 41.44 39.70 39.02 C 39.25 35.87 41.64 32.55 44.39 31.20 C 47.18 29.85 50.02 28.66 52.68 27.04 Z" />
    <path d="M 25.99 27.07 C 27.04 27.68 28.09 28.28 29.15 28.86 C 31.30 29.98 33.79 30.72 35.72 32.17 C 37.78 33.90 39.55 36.90 38.67 39.65 C 37.14 41.17 34.62 40.13 33.04 39.19 C 28.73 36.55 27.70 31.45 25.99 27.07 Z" />
    <path d="M 25.95 36.01 C 28.71 37.67 31.63 38.94 34.52 40.36 C 36.71 41.42 37.78 44.01 39.25 45.86 C 40.91 44.18 41.47 41.84 43.74 40.55 C 46.65 38.94 49.79 37.78 52.65 36.04 C 51.05 39.74 50.10 44.25 47.04 47.01 C 45.52 48.53 43.63 48.98 41.63 49.55 C 39.30 48.00 39.35 47.80 37.01 49.59 C 35.13 49.02 33.35 48.61 31.84 47.26 C 28.61 44.62 27.42 39.77 25.95 36.01 Z" />
    <path d="M 25.99 45.01 C 27.06 45.62 28.14 46.22 29.22 46.80 C 31.69 48.12 35.05 48.97 36.82 51.16 C 38.40 53.19 39.77 55.60 38.17 58.07 C 35.54 58.86 33.16 57.42 31.25 55.74 C 28.44 52.97 27.38 48.58 25.99 45.01 Z" />
    <path d="M 52.67 45.01 C 51.33 48.07 50.39 51.74 48.41 54.44 C 46.74 56.63 43.85 58.67 40.98 58.29 C 38.77 57.38 39.73 54.17 40.69 52.64 C 42.87 48.51 48.88 47.64 52.67 45.01 Z" />
    <path d="M 39.90 57.48 C 42.26 61.70 39.81 66.24 42.39 70.60 C 44.59 74.80 48.58 75.95 52.96 76.61 C 52.89 77.74 52.82 78.87 52.75 80.00 L 50.80 80.00 C 47.00 79.21 43.47 78.19 40.70 75.30 C 37.00 71.40 36.29 65.20 37.21 60.12 C 37.31 58.89 39.03 58.16 39.90 57.48 Z" />
  </symbol>

  <symbol id="COUNT" viewBox="0 0 200 200">
    <path d="M 102.00 9.78 C 104.16 9.76 107.09 9.81 108.83 11.28 C 113.98 14.18 117.27 18.91 120.23 23.86 C 122.32 29.55 124.33 35.62 125.50 41.56 C 126.23 41.84 126.91 41.82 127.52 41.50 C 130.18 39.45 133.17 37.87 135.84 35.75 C 137.46 34.53 140.02 34.04 141.75 35.28 C 143.05 36.81 142.07 38.90 141.53 40.56 C 139.74 43.81 138.73 47.71 136.72 50.90 C 135.80 53.61 136.36 55.73 137.88 58.02 C 138.68 62.87 142.93 66.03 143.84 70.99 C 145.44 77.22 143.11 83.18 144.55 89.55 C 144.75 91.03 145.71 92.42 145.74 93.99 C 147.17 100.96 151.18 107.32 153.69 114.10 C 155.35 117.57 154.74 121.47 156.36 124.88 C 157.13 128.82 156.68 133.19 157.68 137.10 C 159.48 143.51 161.24 150.28 160.05 157.01 C 159.69 159.81 156.46 161.06 154.50 162.53 C 151.25 163.87 148.62 165.61 146.00 167.97 C 145.15 168.94 142.44 168.99 143.33 170.67 C 145.98 173.42 147.88 176.05 149.48 179.49 C 150.51 180.88 151.20 182.29 153.01 182.83 C 155.71 183.69 159.40 181.40 161.58 183.43 C 163.10 184.43 162.55 185.99 162.53 187.56 C 161.19 190.13 158.68 189.87 156.95 191.96 C 155.39 193.67 153.10 193.18 151.02 193.42 C 144.68 194.97 137.53 194.25 131.00 194.43 C 126.64 194.24 121.62 194.96 117.53 193.56 C 114.90 192.40 112.87 189.85 111.60 187.33 C 110.88 185.65 109.31 184.91 108.92 183.03 C 107.22 179.78 104.73 177.38 102.18 174.79 C 101.37 174.11 100.56 172.56 99.33 173.31 C 96.54 175.67 94.75 178.66 92.35 181.35 C 89.44 184.81 87.88 189.55 84.45 192.43 C 80.50 195.10 76.50 194.30 72.00 194.43 C 65.04 194.31 57.89 194.76 51.00 193.92 C 48.37 192.77 44.97 194.11 43.05 191.96 C 41.32 189.87 38.80 190.13 37.47 187.56 C 37.44 185.97 36.91 184.44 38.42 183.43 C 40.63 181.41 44.27 183.69 46.99 182.83 C 49.19 182.19 50.13 179.89 51.29 178.16 C 52.46 175.17 54.59 173.04 56.66 170.68 C 57.40 169.02 55.56 169.16 54.63 168.39 C 52.38 167.01 50.59 164.49 48.03 163.98 C 45.08 161.92 39.80 160.19 39.76 156.00 C 39.12 150.35 40.21 144.38 41.82 139.01 C 43.37 134.37 42.81 129.61 43.64 124.88 C 45.23 121.78 44.65 118.07 45.76 114.90 C 47.07 112.84 47.88 110.82 48.53 108.48 C 51.31 103.22 53.69 97.79 54.70 91.89 C 57.77 84.23 53.81 76.95 56.73 68.90 C 57.99 66.95 58.40 64.77 60.11 63.06 C 61.91 60.86 61.44 58.17 63.25 56.10 C 63.84 54.75 63.72 52.89 63.49 51.47 C 61.87 48.40 60.46 45.17 59.23 41.90 C 58.11 40.21 56.37 35.88 59.01 34.83 C 62.78 33.56 66.43 37.79 69.54 39.48 C 71.40 40.18 72.36 42.43 74.49 41.56 C 74.87 38.79 75.75 36.23 76.45 33.53 C 78.12 29.01 78.57 24.78 81.72 20.78 C 84.15 16.86 87.25 13.65 91.11 11.13 C 94.58 9.18 98.21 9.96 102.00 9.78 Z" />
  </symbol>

  <symbol id="CULT" viewBox="20 0 600 600">
    <path d="M 374.19 28.84 C 390.83 35.28 406.33 44.42 419.59 56.38 C 447.00 80.52 464.58 114.46 469.77 150.50 C 472.46 170.22 471.86 190.34 467.35 209.75 C 460.34 241.64 443.55 271.42 420.30 294.29 C 413.36 301.45 405.29 307.18 398.60 314.59 C 376.15 337.64 362.39 368.83 360.77 400.99 C 360.03 418.09 362.47 435.27 368.60 451.28 C 377.95 476.48 396.03 498.26 419.45 511.55 C 447.24 527.43 481.75 530.36 511.21 517.22 C 525.44 510.98 538.20 500.98 547.37 488.40 C 556.46 476.17 562.14 461.26 563.13 446.04 C 564.39 428.08 558.96 409.60 547.13 395.88 C 537.35 384.34 523.22 376.52 508.01 375.52 C 493.63 374.50 478.62 380.09 470.07 392.04 C 464.08 400.31 461.89 411.82 467.04 421.04 C 470.23 426.74 476.99 431.07 483.60 428.64 C 488.35 427.00 488.48 421.83 493.06 420.04 C 499.12 417.61 505.47 421.02 508.96 426.03 C 514.35 433.82 513.65 444.25 509.42 452.40 C 502.92 464.80 489.68 472.00 475.99 473.01 C 459.40 474.28 443.20 467.04 431.94 455.04 C 420.40 442.90 414.25 426.64 413.67 410.00 C 412.89 385.38 424.30 361.74 442.84 345.81 C 456.98 333.55 474.95 325.90 493.52 323.76 C 512.16 321.51 531.47 324.68 548.53 332.48 C 566.86 340.70 582.85 354.20 594.32 370.67 C 607.14 388.83 614.70 410.83 616.02 432.99 C 617.61 456.27 612.56 480.11 601.89 500.85 C 583.93 536.70 550.11 563.15 511.53 573.50 C 487.62 580.08 461.88 580.58 437.71 575.13 C 406.65 568.39 377.91 551.96 355.86 529.14 C 332.36 505.01 316.69 474.06 310.31 441.04 C 307.09 422.66 300.69 404.26 290.45 388.57 C 280.44 372.37 266.73 358.63 250.86 348.16 C 229.27 334.18 203.76 326.76 178.00 327.99 C 160.01 328.73 142.26 333.78 126.59 342.65 C 107.58 353.50 91.96 369.88 82.86 389.86 C 75.65 405.39 72.59 423.02 74.53 440.05 C 76.20 455.61 82.13 470.90 91.76 483.27 C 100.68 494.92 113.07 504.18 126.96 508.98 C 139.05 513.26 152.53 514.17 165.01 511.09 C 178.84 507.78 191.63 499.39 199.33 487.33 C 204.73 478.97 207.57 468.92 206.62 458.96 C 205.85 450.19 201.93 441.57 195.15 435.83 C 189.50 431.08 181.76 428.47 174.49 430.63 C 169.30 432.21 164.97 436.34 164.88 442.03 C 164.93 445.18 167.47 447.91 167.79 451.00 C 168.07 455.23 165.64 458.96 162.18 461.19 C 157.28 464.26 151.07 464.38 145.71 462.49 C 137.78 459.68 131.74 452.98 128.66 445.28 C 125.01 436.32 125.16 426.31 128.15 417.19 C 132.20 404.94 141.29 394.72 152.51 388.49 C 162.88 382.63 175.15 380.06 187.02 380.84 C 200.69 381.63 214.13 386.74 225.12 394.87 C 237.59 403.92 247.24 416.93 252.75 431.28 C 258.29 445.38 259.98 461.07 257.91 476.06 C 255.50 494.52 247.45 512.26 235.48 526.48 C 222.81 541.78 205.54 553.33 186.74 559.63 C 167.32 566.29 145.99 567.48 125.90 563.42 C 102.51 558.83 80.47 547.20 63.29 530.71 C 52.89 521.20 44.60 509.60 37.67 497.38 C 21.87 468.25 16.93 433.71 23.52 401.26 C 29.28 371.43 44.59 343.51 66.14 322.14 C 89.65 298.58 120.29 283.07 152.97 277.09 C 178.02 272.65 203.89 273.70 228.45 280.36 C 238.40 282.79 247.67 287.04 257.68 289.22 C 293.16 298.27 332.50 292.31 363.14 272.05 C 381.95 259.86 397.49 242.34 407.00 222.01 C 415.79 203.52 419.59 182.47 417.38 162.09 C 415.53 143.83 408.80 125.91 397.83 111.17 C 387.64 97.23 373.52 85.99 357.49 79.51 C 343.24 73.63 327.26 71.56 312.01 73.98 C 297.71 76.15 283.84 82.39 273.02 92.03 C 260.60 102.95 252.12 118.42 250.70 134.99 C 249.27 150.44 254.29 166.55 265.61 177.39 C 274.22 185.74 286.54 190.52 298.53 188.23 C 306.72 186.70 314.62 181.42 317.41 173.30 C 319.17 168.03 318.37 161.77 313.68 158.29 C 309.91 155.43 305.33 157.83 301.59 154.45 C 295.41 149.13 296.99 139.52 301.79 133.82 C 310.04 123.81 324.61 122.27 336.20 126.79 C 352.18 132.97 362.42 148.33 364.78 164.96 C 366.89 179.57 363.08 194.72 355.01 207.00 C 347.61 218.47 336.57 227.61 324.14 233.16 C 310.75 239.26 295.52 241.37 280.95 239.55 C 264.01 237.56 247.66 230.30 234.54 219.44 C 220.49 208.01 209.82 192.36 203.87 175.28 C 197.40 157.09 196.17 136.98 199.96 118.07 C 204.54 94.42 216.76 72.75 234.00 56.00 C 250.27 40.24 270.68 29.13 292.68 23.74 C 319.65 17.03 348.21 19.15 374.19 28.84 Z" />
  </symbol>

  <symbol id="PRINCESS_AND_DRAGON" viewBox="0 0 80 80">
    <path d="M 39.08 0.00 L 40.89 0.00 L 41.71 0.31 L 42.40 0.63 C 45.83 3.23 47.27 7.47 48.23 11.50 C 49.94 19.10 49.52 26.87 47.54 34.38 C 51.79 34.51 56.16 34.04 60.36 34.59 C 64.79 35.95 65.27 42.14 61.13 44.19 C 58.04 45.31 54.15 44.62 50.87 44.77 C 53.72 55.01 56.61 65.30 59.45 75.51 C 59.98 77.77 59.95 78.30 58.26 80.00 L 21.72 80.00 C 20.09 78.31 20.08 77.71 20.58 75.52 C 23.48 65.28 26.47 55.01 29.39 44.78 C 26.02 44.61 22.06 45.29 18.84 44.22 C 14.66 42.22 15.14 35.86 19.59 34.57 C 23.81 34.06 28.18 34.50 32.43 34.37 C 30.17 25.57 29.91 16.48 32.82 7.80 C 34.07 4.44 35.54 1.40 39.08 0.00 Z" />
  </symbol>

  <symbol id="DARMSTADT" viewBox="0 0 80 80">
    <path d="M 39.70 0.00 L 40.39 0.00 C 44.02 7.50 50.54 11.35 52.45 19.99 C 52.69 26.82 49.40 32.22 46.83 38.16 C 45.54 42.82 44.09 47.91 44.63 52.79 C 46.55 50.98 46.36 48.80 46.97 46.43 C 48.79 38.14 55.83 30.95 64.20 29.33 C 70.97 28.42 78.11 31.90 80.00 38.81 L 80.00 42.39 C 79.74 43.28 79.49 44.17 79.23 45.07 C 76.86 48.12 74.07 49.79 70.65 51.46 C 70.16 52.81 69.67 54.16 69.17 55.52 C 68.23 54.76 67.29 54.00 66.35 53.25 C 66.54 49.94 68.91 45.86 67.07 42.86 C 65.44 40.30 63.00 40.34 60.27 40.69 C 55.42 42.28 53.06 47.20 51.11 51.52 C 51.84 51.89 52.57 52.26 53.30 52.63 C 53.72 53.37 54.14 54.11 54.55 54.85 C 54.16 55.82 53.76 56.79 53.37 57.77 C 52.34 58.15 51.31 58.53 50.28 58.91 C 51.41 60.01 52.56 61.35 53.99 62.01 C 55.92 62.48 58.10 62.28 59.94 63.02 C 61.48 63.76 62.03 65.90 62.79 67.31 C 62.68 67.97 62.57 68.63 62.46 69.29 C 59.83 68.88 57.42 69.39 54.82 69.71 C 52.46 69.13 49.37 68.11 48.25 65.76 C 47.36 64.29 46.55 62.76 45.72 61.25 C 45.71 60.03 45.71 58.81 45.69 57.59 C 44.97 57.94 44.25 58.29 43.53 58.64 C 43.93 61.91 44.89 64.84 46.13 67.88 C 48.45 72.55 43.64 77.62 40.04 79.89 C 37.98 79.15 36.30 77.15 34.71 75.69 C 33.92 74.10 32.24 72.22 32.68 70.35 C 33.73 66.14 36.08 62.99 35.20 58.37 C 33.03 62.34 32.17 66.50 27.85 68.78 C 24.11 70.82 21.06 68.53 16.76 69.31 C 16.90 66.67 17.47 64.43 19.93 62.99 C 22.26 62.31 24.71 62.12 27.07 61.50 C 27.63 60.61 28.21 59.72 28.78 58.83 C 27.66 58.26 26.54 57.68 25.42 57.09 C 25.42 55.97 25.42 54.84 25.42 53.72 C 26.26 52.72 27.12 51.73 27.97 50.74 C 26.33 47.14 25.00 43.73 21.42 41.61 C 18.15 39.54 14.79 40.40 12.21 43.07 C 11.97 44.02 11.71 44.96 11.46 45.91 C 12.16 47.88 13.03 49.90 13.37 51.98 C 12.90 53.01 12.38 54.02 11.82 55.01 C 11.14 54.93 10.47 54.85 9.79 54.78 C 9.71 53.84 9.64 52.91 9.56 51.98 C 7.25 50.38 4.70 49.18 2.43 47.55 C 1.07 46.18 0.51 44.51 0.00 42.70 L 0.00 38.42 C 1.52 30.59 12.11 27.32 18.77 30.24 C 27.10 33.36 31.54 40.62 33.28 49.03 C 33.35 49.98 33.42 50.93 33.48 51.87 C 34.15 51.78 34.82 51.69 35.48 51.59 C 34.95 49.23 34.62 46.87 34.37 44.47 C 33.45 36.16 27.55 30.54 27.28 22.01 C 26.87 17.28 29.71 13.10 32.53 9.58 C 35.13 6.54 37.24 3.16 39.70 0.00 Z" />
  </symbol>

  <symbol id="FESTIVAL" viewBox="0 0 296 296">
    <path d="M 199.68 7.35 C 202.25 7.56 204.49 9.57 207.01 9.64 C 209.66 9.38 212.26 8.02 214.79 7.20 C 214.51 9.15 213.83 11.09 213.75 13.05 C 215.67 16.57 218.57 19.63 221.53 22.31 C 217.38 22.54 214.02 21.93 211.45 25.89 C 211.94 28.50 212.38 31.12 212.57 33.77 C 210.16 32.69 207.68 30.55 205.08 30.24 C 202.18 30.76 199.41 32.59 196.77 33.88 C 197.91 31.05 199.39 28.07 199.72 25.02 L 198.84 23.50 C 196.42 23.08 193.84 23.52 191.37 23.46 C 191.48 22.30 191.61 21.14 191.76 19.98 C 193.65 19.06 195.65 18.14 197.34 16.88 C 197.75 13.52 197.94 10.38 199.68 7.35 Z" />
    <path d="M 134.72 27.22 C 136.43 28.38 138.10 29.81 140.00 30.65 C 142.57 30.78 145.17 30.49 147.73 30.41 C 147.27 33.09 146.20 36.18 146.67 38.89 C 147.90 41.55 150.00 43.89 151.80 46.20 C 148.61 46.61 143.58 45.54 141.75 48.82 C 140.65 52.12 140.37 55.30 138.10 58.14 C 136.63 55.68 135.24 53.17 133.89 50.64 C 131.28 50.64 128.67 50.61 126.08 50.32 C 127.49 48.32 128.89 46.41 129.65 44.05 C 127.30 42.02 124.97 39.98 122.74 37.82 C 125.56 35.80 128.38 35.54 131.71 35.38 C 132.94 32.73 133.75 29.96 134.72 27.22 Z" />
    <path d="M 229.80 39.47 C 231.76 39.33 232.88 40.57 234.15 41.83 C 236.24 43.60 235.58 46.93 235.38 49.37 C 234.10 52.39 231.60 54.98 229.13 57.09 C 224.99 60.60 220.11 61.79 215.76 64.75 C 213.20 66.45 211.52 69.16 209.68 71.58 C 207.50 74.65 204.86 77.24 202.44 80.10 C 202.35 76.40 202.46 73.01 203.85 69.54 C 206.32 63.07 207.39 56.18 209.89 49.75 C 211.77 44.97 215.80 42.30 220.36 40.38 C 223.15 39.08 226.78 39.44 229.80 39.47 Z" />
    <path d="M 161.98 59.45 C 167.93 58.70 173.66 62.26 178.11 65.86 C 181.71 69.07 185.65 73.10 187.25 77.75 C 188.35 81.91 188.67 86.34 189.38 90.59 C 189.84 94.41 190.36 98.02 188.00 101.34 C 186.31 98.39 184.72 95.42 183.65 92.18 C 181.51 85.57 177.37 80.29 173.32 74.64 C 169.91 70.01 164.96 68.70 160.52 65.51 C 159.20 64.61 158.60 63.31 157.92 61.91 C 159.09 61.05 160.40 59.25 161.98 59.45 Z" />
    <path d="M 110.87 61.67 C 114.53 62.67 118.45 63.93 121.90 65.50 C 126.29 67.55 129.21 71.09 131.69 75.13 C 134.52 79.71 138.51 84.01 140.62 88.93 C 143.61 96.76 146.16 104.77 148.14 112.91 C 148.74 116.17 148.36 119.56 148.77 122.86 C 152.08 122.97 152.48 118.87 154.03 116.70 C 155.43 121.73 153.81 126.13 153.63 131.04 C 155.31 139.12 154.68 147.29 153.01 155.30 C 150.38 156.60 147.81 156.30 144.96 156.37 C 142.22 151.15 138.59 146.65 136.32 141.16 C 135.26 139.01 134.30 136.20 132.41 134.65 C 130.12 133.11 127.30 132.23 124.61 131.66 C 120.57 132.62 116.54 134.31 112.68 135.85 C 110.97 137.85 110.09 140.57 108.66 142.80 C 105.35 148.16 102.53 153.84 100.14 159.68 C 98.37 164.00 97.36 169.63 94.27 173.19 C 92.46 175.06 90.89 176.99 88.00 176.68 C 84.11 177.01 80.94 175.02 78.66 172.01 C 77.45 164.74 79.14 158.21 81.44 151.37 C 82.90 147.32 85.98 143.84 88.50 140.35 C 91.20 136.63 94.68 133.64 97.20 129.77 C 92.49 127.93 88.26 128.39 83.46 129.59 C 75.40 130.59 67.54 132.34 59.98 135.34 C 54.53 137.51 49.61 140.54 44.41 143.17 C 41.61 144.69 37.83 145.34 34.85 144.10 C 31.04 141.09 30.29 134.63 34.19 131.29 C 39.51 127.40 45.09 124.01 51.43 122.04 C 59.14 119.09 67.81 118.24 76.00 117.62 C 82.16 117.00 86.98 119.72 92.99 120.31 C 94.83 120.45 96.73 120.31 98.54 120.64 C 100.35 121.70 101.96 123.12 103.80 124.17 C 105.20 124.77 107.03 124.50 108.51 124.33 C 113.48 123.34 118.54 122.54 123.61 122.32 C 123.37 120.19 124.21 117.24 122.07 115.93 C 118.96 113.13 114.83 114.27 111.86 111.16 C 106.70 106.39 100.01 103.74 93.64 100.67 C 90.80 99.26 88.02 99.73 84.99 99.33 C 78.20 97.95 70.92 98.78 63.96 98.55 C 58.63 98.36 53.67 99.76 48.73 101.59 C 44.83 103.09 41.54 105.79 37.67 107.24 C 34.05 107.81 30.22 107.45 26.56 107.39 C 26.55 104.30 25.98 101.05 27.45 98.22 C 29.06 94.84 30.90 91.38 34.28 89.49 C 41.60 85.06 49.04 84.57 57.09 82.75 C 66.43 79.73 77.22 82.54 86.51 84.74 C 92.40 85.93 97.96 88.06 103.44 90.51 C 106.69 91.97 108.33 94.53 111.21 96.74 C 114.98 99.73 118.04 103.30 122.09 105.96 C 124.68 107.67 127.10 109.30 128.57 112.14 C 132.62 120.08 138.18 127.88 145.29 133.36 C 147.37 130.99 146.72 128.08 146.40 125.20 C 143.67 116.42 140.62 107.79 136.96 99.36 C 135.27 95.17 131.69 93.74 128.79 90.48 C 127.17 89.13 126.49 86.96 124.07 87.50 C 118.45 88.39 113.05 87.03 107.95 84.68 C 103.53 82.50 100.86 77.40 99.72 72.80 C 99.27 69.61 100.47 64.59 104.10 63.68 C 106.23 62.93 108.60 61.73 110.87 61.67 Z" />
    <path d="M 255.97 70.39 C 259.91 70.46 263.90 70.24 267.82 70.59 C 272.73 71.91 278.66 75.13 280.57 80.12 C 281.68 85.16 277.81 88.43 273.78 90.44 C 266.18 91.51 259.53 89.29 252.43 86.97 C 248.08 85.51 243.59 83.20 238.97 83.49 C 235.36 83.43 231.57 84.82 228.11 85.78 C 223.64 87.19 218.81 88.24 214.84 90.67 C 211.34 92.81 207.86 95.05 204.61 97.55 C 201.26 100.16 198.76 103.94 194.96 105.61 C 193.04 106.59 191.06 106.66 188.96 106.89 C 191.07 103.08 194.76 101.74 197.59 98.61 C 204.65 90.97 213.40 83.64 223.26 80.02 C 227.62 78.21 231.94 76.43 236.55 75.32 C 243.14 73.70 249.30 70.10 255.97 70.39 Z" />
    <path d="M 154.70 84.27 C 156.06 87.30 158.08 90.37 156.75 93.74 C 155.37 98.06 155.50 102.30 155.32 106.77 C 153.02 104.07 152.50 102.55 152.51 99.02 C 152.66 95.48 150.53 92.42 150.49 89.01 C 151.35 87.42 152.39 83.87 154.70 84.27 Z" />
    <path d="M 247.05 107.75 C 254.07 109.46 261.19 111.80 267.41 115.52 C 272.49 118.51 276.41 123.16 279.08 128.35 C 279.90 130.35 279.56 132.91 279.66 135.04 C 279.48 137.07 280.04 138.84 278.39 140.36 C 277.02 142.36 274.13 141.47 272.01 141.60 C 269.66 141.61 267.92 140.44 265.96 139.32 C 259.19 135.17 253.41 128.87 246.99 124.21 C 243.22 121.44 239.51 118.17 235.40 115.91 C 230.87 113.44 225.80 112.30 220.71 111.72 C 217.61 111.52 214.79 111.74 211.99 110.07 C 214.73 108.18 216.58 107.47 219.85 107.19 C 229.25 105.50 237.76 106.83 247.05 107.75 Z" />
    <path d="M 189.96 111.72 C 192.10 111.40 194.68 112.23 196.29 113.67 C 197.07 116.09 197.21 119.70 195.94 121.95 C 192.70 125.58 188.29 127.24 185.88 131.92 C 183.13 137.68 181.48 144.18 181.34 150.56 C 179.64 160.29 181.00 170.78 180.43 180.67 C 180.09 182.25 178.64 183.62 177.82 185.01 C 175.88 179.87 175.37 175.65 175.38 170.18 C 174.05 163.78 174.66 157.47 174.58 151.00 C 174.17 140.38 175.90 129.39 179.92 119.53 C 181.64 115.22 185.67 112.89 189.96 111.72 Z" />
    <path d="M 201.54 114.52 C 203.95 114.73 206.24 115.62 208.68 115.73 C 212.13 115.78 215.30 118.46 218.56 119.60 C 224.77 122.01 230.11 125.72 235.40 129.70 C 238.08 131.80 239.64 134.43 241.97 137.03 C 246.63 142.41 251.26 147.30 254.28 153.87 C 254.87 155.32 256.03 157.30 255.54 158.88 C 254.55 161.86 253.45 164.70 251.08 166.87 C 248.07 165.13 245.50 162.99 244.12 159.71 C 242.19 154.53 240.77 148.21 236.53 144.41 C 233.37 141.21 230.18 134.76 225.37 134.18 C 226.27 141.27 229.05 148.10 230.42 155.11 C 230.78 157.57 230.47 159.21 229.29 161.38 C 227.63 161.44 225.97 161.53 224.31 161.60 C 219.61 151.42 218.78 137.93 212.22 127.69 C 209.80 123.88 206.08 122.73 202.88 119.93 C 201.89 118.39 201.56 116.33 201.54 114.52 Z" />
    <path d="M 77.37 148.13 C 76.21 150.75 75.21 153.49 73.84 156.01 C 71.95 159.51 68.75 161.92 66.33 165.25 C 62.50 170.04 59.93 175.42 56.93 180.72 C 53.30 187.40 51.25 194.48 48.19 201.27 C 46.35 201.53 44.30 201.95 42.47 201.63 C 40.58 200.13 39.62 198.04 39.04 195.75 C 37.91 190.69 38.48 185.43 41.12 180.91 C 44.45 175.03 47.40 167.95 52.32 163.29 C 55.59 160.05 59.79 158.16 63.69 155.69 C 68.05 152.84 72.66 150.34 77.37 148.13 Z" />
    <path d="M 162.41 164.76 C 162.76 168.86 163.56 172.84 163.42 176.97 C 163.22 185.60 163.36 194.22 163.68 202.85 C 164.78 209.24 163.83 215.60 164.59 222.02 C 164.96 228.25 167.69 233.09 169.31 238.96 C 171.34 245.99 173.11 254.06 176.49 260.68 C 180.03 266.90 184.20 272.66 189.46 277.54 C 192.96 280.97 196.89 283.21 200.82 286.12 C 199.85 287.28 199.27 288.44 197.71 288.88 C 193.69 290.17 189.35 291.75 185.09 291.68 C 180.41 291.72 175.69 291.68 171.01 291.58 C 167.15 291.55 163.88 289.44 159.96 289.51 C 155.67 289.52 151.56 288.35 147.26 288.49 C 143.45 288.59 139.82 287.51 136.03 287.52 C 133.09 287.28 130.54 288.15 128.44 285.52 C 126.67 282.86 125.95 279.21 125.58 276.08 C 125.36 268.38 125.59 260.67 125.52 252.97 C 125.28 247.06 128.11 241.96 128.37 236.00 C 128.40 231.32 130.78 227.77 128.36 223.41 C 124.32 223.32 121.74 225.59 118.37 227.41 C 114.80 229.38 111.85 232.06 108.82 234.76 C 101.25 230.72 95.96 222.25 89.91 216.09 C 87.90 213.59 84.57 211.77 85.52 208.12 C 87.69 203.60 92.01 200.04 95.48 196.48 C 104.85 186.77 115.29 177.95 126.60 170.58 C 134.19 165.50 142.01 165.45 150.69 163.38 C 154.42 163.04 159.07 162.84 162.41 164.76 Z" />
    <path d="M 12.86 189.11 C 15.63 189.69 17.22 191.60 19.26 193.37 C 21.76 192.98 24.26 192.57 26.78 192.31 C 26.47 195.32 25.64 198.15 24.63 200.99 C 25.57 202.69 29.42 205.29 28.41 207.32 C 26.08 209.02 22.99 209.83 20.92 211.81 C 19.12 214.04 17.85 216.68 16.17 219.01 C 14.36 217.46 12.59 215.45 10.43 214.39 C 8.65 214.00 6.62 214.49 4.81 214.62 C 4.30 214.12 3.78 213.62 3.26 213.12 C 4.60 210.86 5.88 208.59 6.79 206.11 C 4.49 204.53 2.20 202.95 0.00 201.24 L 0.00 199.79 C 3.15 199.16 6.19 198.20 9.23 197.19 C 10.51 194.53 11.60 191.78 12.86 189.11 Z"/>
    <path fill-rule="evenodd"
          d="M 224.04 166.32 C 230.53 165.99 236.74 166.85 241.87 171.13 C 247.10 175.71 252.63 178.55 257.04 183.95 C 259.64 187.37 262.26 190.85 264.44 194.55 C 267.01 199.22 267.71 203.96 268.82 209.05 C 270.04 213.75 271.72 217.98 271.55 222.95 C 271.49 229.86 271.86 236.86 271.32 243.75 C 269.33 252.91 264.86 261.59 258.61 268.57 C 252.75 275.24 243.21 278.12 234.83 280.07 C 226.99 281.15 218.99 280.61 211.64 277.50 C 200.33 273.34 191.23 263.66 185.63 253.20 C 181.69 245.04 180.07 236.70 177.66 228.10 C 175.87 222.44 176.69 215.96 176.59 209.93 C 176.79 202.45 180.63 197.08 183.31 190.43 C 185.05 186.59 185.77 182.85 188.81 179.83 C 192.23 176.53 195.96 173.29 200.17 171.04 C 207.50 167.37 215.91 166.16 224.04 166.32 Z
             M 221.39 201.21 C 226.73 198.74 233.61 203.05 236.31 207.69 C 239.37 213.15 238.48 219.23 235.72 224.58 C 233.73 228.12 229.93 230.62 225.99 231.39 C 219.11 232.29 212.66 227.60 211.15 220.87 C 209.44 213.29 213.71 203.80 221.39 201.21 Z"
    />
  </symbol>

  <symbol id="FLIER" viewBox="0 0 80 80">
    <path d="M 75.31 11.40 L 75.22 13.80 C 72.81 13.86 70.43 14.06 68.04 14.33 C 66.73 17.46 65.78 20.61 66.01 24.05 C 66.43 30.25 69.60 35.58 73.47 40.26 C 75.47 40.56 77.46 40.87 79.46 41.20 L 78.90 43.64 C 76.92 43.34 74.93 43.04 72.96 42.72 C 65.11 47.37 60.26 54.83 57.02 63.18 C 58.36 64.15 59.70 65.13 61.04 66.11 C 60.58 66.80 60.12 67.50 59.66 68.18 C 53.42 63.70 47.03 59.80 39.78 57.13 C 33.05 54.86 26.02 53.40 18.96 52.63 C 12.62 51.84 6.30 51.58 0.00 52.84 L 0.00 52.55 C 13.26 38.89 29.18 27.49 46.45 19.44 C 55.57 15.04 64.97 11.07 75.31 11.40 Z" />
  </symbol>

  <symbol id="FERRIES" viewBox="0 0 80 80">
    <path d="M 0.00 28.95 C 8.66 29.37 17.32 29.94 25.99 30.18 C 43.88 31.06 62.11 29.89 80.00 28.92 L 80.00 36.45 C 75.95 41.33 71.80 46.13 67.72 50.99 C 49.22 51.00 30.73 51.02 12.23 50.98 C 8.17 46.14 4.05 41.35 0.00 36.50 L 0.00 28.95 Z" />
  </symbol>

  <symbol id="GOLDMINES" viewBox="0 0 80 80">
    <path d="M 10.27 28.23 C 14.13 27.73 18.12 28.04 22.00 28.00 C 36.34 27.98 50.69 28.05 65.03 27.94 C 66.83 27.97 68.73 27.98 70.47 28.45 C 73.92 35.94 76.41 43.86 80.00 51.31 L 80.00 52.13 C 53.34 51.81 26.66 52.12 0.00 51.97 L 0.00 51.14 C 3.90 43.74 6.21 35.50 10.27 28.23 Z" />
  </symbol>

  <symbol id="GQ11" viewBox="0 0 500 500">
    <path d="M 180.17 136.43 C 198.10 140.24 214.91 148.01 228.32 160.65 C 224.10 166.98 219.98 173.39 215.71 179.69 C 212.69 184.15 207.15 185.71 202.14 183.78 C 197.63 181.87 193.56 178.98 189.12 176.86 C 173.79 168.83 156.21 166.93 139.18 168.79 C 122.02 170.88 105.99 179.86 96.30 194.33 C 85.55 210.30 82.85 230.19 84.56 249.03 C 86.06 265.55 92.17 282.04 104.18 293.82 C 115.15 304.64 129.81 310.17 144.98 311.58 C 160.30 313.07 175.79 310.75 189.63 303.89 C 189.47 291.98 189.60 280.05 189.56 268.14 C 181.04 268.05 172.49 268.25 163.97 268.05 C 160.03 267.91 156.47 265.01 156.41 260.91 C 156.33 253.15 156.37 245.37 156.40 237.61 C 180.27 237.64 204.13 237.61 228.00 237.63 C 228.02 265.78 227.97 293.94 228.02 322.09 C 210.52 335.05 189.59 341.91 167.99 343.65 C 146.57 345.36 124.10 343.15 104.13 334.85 C 88.44 328.43 74.32 318.62 63.51 305.49 C 50.80 290.10 43.27 270.99 41.31 251.17 C 39.46 232.04 41.66 212.00 49.25 194.24 C 54.59 181.56 62.62 170.06 72.84 160.83 C 87.54 147.47 106.68 138.95 126.16 135.53 C 143.94 132.53 162.52 132.68 180.17 136.43 Z" />
    <path fill-rule="evenodd"
      d="M 343.01 134.05 C 361.97 132.28 381.54 134.32 399.14 141.92 C 413.54 148.06 426.43 157.53 436.26 169.75 C 449.39 185.99 456.87 206.29 458.70 227.01 C 460.38 246.63 458.06 266.87 450.07 284.99 C 443.84 299.33 434.37 312.10 422.23 321.98 C 440.48 341.99 458.93 361.86 477.09 381.95 C 465.73 381.93 454.36 381.95 443.00 381.94 C 437.94 381.93 432.99 381.48 428.17 379.84 C 423.79 378.30 420.12 375.40 417.04 371.99 C 407.40 361.23 397.78 350.46 388.11 339.73 C 371.63 344.46 353.96 345.31 337.03 342.86 C 316.55 339.88 296.74 330.61 281.89 316.11 C 271.74 306.26 264.01 294.17 258.91 281.00 C 252.10 263.62 250.17 244.51 251.95 226.01 C 253.80 207.20 260.32 188.79 271.52 173.50 C 288.24 150.59 314.93 136.62 343.01 134.05 Z
         M 345.52 168.79 C 361.96 166.71 378.88 169.39 392.19 179.79 C 406.01 190.57 412.97 207.53 415.12 224.54 C 417.00 240.57 416.06 258.00 410.12 273.16 C 405.53 284.96 397.66 295.25 386.60 301.62 C 373.93 309.04 358.32 310.60 344.00 308.49 C 330.16 306.42 317.29 299.36 308.86 288.08 C 298.34 274.17 294.71 256.12 294.74 239.00 C 294.64 221.55 298.38 203.29 309.21 189.20 C 317.94 177.68 331.28 170.62 345.52 168.79 Z"
    />
  </symbol>

  <symbol id="HILLS_AND_SHEEP" viewBox="0 0 80 80">
    <path d="M 64.28 10.00 C 66.77 10.18 69.54 9.60 71.50 11.49 C 73.47 13.20 73.61 15.54 74.12 17.93 C 76.70 21.16 79.11 24.24 80.00 28.38 L 80.00 30.61 C 79.07 32.52 78.40 34.08 75.99 34.16 C 73.22 33.99 70.46 32.12 67.96 31.01 C 66.83 33.89 66.20 35.45 63.42 37.03 C 63.13 39.05 63.04 41.34 62.21 43.23 C 61.33 45.14 59.33 46.55 57.76 47.89 C 57.48 51.44 57.07 53.33 54.45 55.85 C 55.20 61.11 55.52 66.26 57.82 71.15 C 56.01 71.01 54.20 70.86 52.39 70.71 C 51.60 65.55 50.86 60.39 49.99 55.24 C 48.36 54.92 46.73 54.59 45.11 54.24 C 45.82 59.28 46.32 64.19 48.27 68.94 C 46.40 68.96 44.54 68.95 42.67 68.93 C 42.08 63.77 41.25 58.65 40.61 53.49 C 38.83 54.27 36.94 55.18 35.04 55.55 C 32.83 55.88 30.46 54.96 28.32 54.43 C 27.74 56.12 27.11 57.78 26.44 59.43 C 27.25 62.74 28.15 66.01 29.28 69.22 C 27.61 69.21 25.94 69.18 24.27 69.13 C 23.10 64.22 21.59 59.56 21.74 54.43 C 20.85 54.55 19.96 54.67 19.08 54.79 C 18.06 56.52 17.01 58.22 15.92 59.90 C 16.79 63.81 17.85 67.34 19.69 70.91 C 17.88 70.90 16.08 70.86 14.27 70.80 C 13.47 66.74 12.44 62.73 11.55 58.68 C 11.03 56.87 11.58 55.30 11.90 53.52 C 9.11 50.50 8.61 48.77 8.45 44.66 C 6.33 40.63 5.91 38.76 7.71 34.35 C 7.20 33.08 6.69 31.81 6.17 30.54 C 4.95 35.06 5.37 39.12 2.03 42.74 C 1.28 40.93 0.53 39.14 0.00 37.25 L 0.00 33.35 C 0.48 31.33 1.00 29.01 2.56 27.54 C 3.76 26.53 5.34 25.84 6.74 25.12 C 7.92 23.15 8.80 21.12 10.92 19.97 C 13.81 18.33 16.70 18.57 19.89 18.77 C 24.80 16.88 27.50 16.75 32.37 18.89 C 37.36 16.56 40.62 16.40 45.96 17.79 C 47.96 16.83 49.99 15.97 52.04 15.14 C 53.50 13.01 54.49 10.96 57.05 10.00 C 59.53 8.85 61.75 9.50 64.28 10.00 Z" />
  </symbol>

  <symbol id="INNS_AND_CATHEDRALS" viewBox="0 0 80 80">
    <path d="M 46.68 4.30 C 51.00 7.46 52.26 12.90 52.36 17.97 C 60.30 20.23 69.90 22.38 76.47 27.57 C 79.77 30.10 80.93 34.62 77.78 37.79 C 73.78 41.37 67.15 42.35 62.07 43.49 C 66.22 50.36 71.40 56.82 74.99 63.98 C 76.87 67.70 77.78 71.37 77.99 75.54 C 69.10 76.77 60.64 76.25 51.69 76.37 C 47.37 71.43 43.66 66.01 40.31 60.37 C 36.22 65.90 32.34 71.59 28.17 77.05 C 19.35 77.03 10.59 77.02 1.81 76.20 C 2.53 63.32 11.21 53.91 17.52 43.35 C 12.85 41.97 7.71 40.88 3.37 38.65 C 1.76 37.86 0.79 36.72 0.00 35.13 L 0.00 32.43 C 1.18 29.50 3.47 27.60 6.11 26.03 C 12.25 22.39 19.56 20.31 26.41 18.46 C 27.60 13.16 29.21 8.16 33.66 4.66 C 37.45 1.75 42.78 1.39 46.68 4.30 Z" />
  </symbol>

  <symbol id="KING_AND_ROBBER" viewBox="0 0 80 80">
    <path d="M 19.78 11.84 C 23.26 20.00 26.51 28.26 29.94 36.44 C 33.30 28.23 36.62 20.01 39.97 11.80 C 43.42 20.08 46.69 28.45 50.13 36.74 C 53.47 28.42 56.82 20.10 60.18 11.79 C 62.88 19.98 65.45 28.21 68.13 36.41 C 72.12 28.42 76.16 20.43 80.00 12.37 L 80.00 14.26 C 79.18 22.48 78.43 30.71 77.84 38.95 C 77.75 48.29 77.83 57.65 77.80 66.99 C 52.60 67.00 27.40 67.00 2.20 66.99 C 2.16 57.67 2.29 48.33 2.14 39.01 C 1.49 30.86 0.81 22.70 0.00 14.56 L 0.00 12.52 C 3.89 20.52 8.01 28.42 11.88 36.44 C 14.61 28.27 17.08 20.02 19.78 11.84 Z" />
  </symbol>

  <symbol id="LABYRINTH" viewBox="0 0 508 508">
    <path d="M 0.00 0.00 L 226.00 0.00 C 226.00 18.66 226.00 37.32 226.00 55.98 C 169.77 56.25 113.53 56.00 57.30 56.11 C 57.29 93.40 57.30 130.69 57.30 167.98 C 76.09 168.01 94.89 168.01 113.69 167.98 C 113.69 150.19 113.67 132.41 113.70 114.62 C 132.73 114.60 151.76 114.60 170.79 114.62 C 170.78 152.08 170.78 189.54 170.79 226.99 C 189.85 227.03 208.91 226.96 227.97 227.03 C 228.04 264.73 227.97 302.43 228.00 340.13 C 283.87 340.15 339.74 340.12 395.61 340.14 C 395.59 359.17 395.59 378.19 395.60 397.21 C 341.74 397.27 287.87 397.23 234.00 397.23 C 215.35 397.71 196.66 397.36 178.00 397.48 C 156.96 397.00 135.89 397.34 114.84 397.22 C 114.82 378.20 114.82 359.17 114.84 340.14 C 133.48 340.10 152.13 340.22 170.78 340.07 C 170.78 321.71 170.78 303.34 170.78 284.98 C 152.19 284.90 133.60 284.96 115.00 284.94 C 115.00 265.63 115.00 246.31 115.00 227.00 C 76.67 227.00 38.33 227.00 0.00 227.00 L 0.00 0.00 Z" />
    <path d="M 286.00 0.00 L 508.00 0.00 L 508.00 229.00 C 489.56 229.00 471.13 229.01 452.69 229.00 C 452.67 171.37 452.70 113.74 452.68 56.11 C 415.46 56.07 378.24 56.11 341.01 56.09 C 341.00 75.60 340.98 95.11 341.02 114.61 C 359.01 114.60 377.00 114.60 395.00 114.62 C 395.00 171.08 395.00 227.54 395.00 284.00 C 357.68 284.00 320.36 284.00 283.04 284.00 C 283.05 265.12 283.03 246.24 283.05 227.36 C 301.47 227.37 319.89 227.41 338.30 227.34 C 338.37 208.80 338.35 190.27 338.31 171.74 C 317.88 171.78 297.42 171.44 277.00 172.01 C 260.24 171.91 243.46 172.17 226.70 171.87 C 226.60 152.58 226.67 133.29 226.66 114.00 C 246.42 113.90 266.20 114.19 285.95 113.85 C 286.06 75.90 285.97 37.95 286.00 0.00 Z" />
    <path d="M 0.00 285.00 C 19.10 285.00 38.19 284.99 57.29 285.00 C 57.31 341.29 57.29 397.58 57.30 453.87 C 113.53 453.92 169.76 453.87 226.00 453.90 C 226.01 471.93 226.00 489.97 226.00 508.00 L 0.00 508.00 L 0.00 285.00 Z" />
    <path d="M 452.69 285.00 C 471.13 284.99 489.56 285.00 508.00 285.00 L 508.00 508.00 L 284.00 508.00 C 284.08 489.71 283.84 471.41 284.12 453.13 C 340.25 452.80 396.55 452.95 452.68 452.89 C 452.70 396.93 452.67 340.97 452.69 285.00 Z" />
  </symbol>

  <symbol id="MONASTERIES" viewBox="0 0 80 80">
    <path d="M 30.96 0.00 L 32.38 0.00 C 39.52 0.40 44.82 5.57 45.15 12.75 C 52.84 14.48 56.53 22.24 58.95 28.98 C 64.14 44.73 65.35 62.91 62.68 79.23 C 58.24 79.53 53.78 79.70 49.34 80.00 L 36.64 80.00 C 33.50 79.78 30.37 79.50 27.23 79.24 C 26.85 68.00 29.61 57.17 29.78 46.00 C 28.54 45.73 27.32 45.38 26.13 44.96 C 24.63 43.66 24.42 40.87 25.14 39.12 C 26.45 38.34 28.03 37.91 29.47 37.43 C 29.44 32.10 29.16 27.07 31.26 22.03 C 26.04 19.78 20.31 16.79 16.62 12.36 C 14.93 9.97 16.97 7.38 18.64 5.67 C 22.01 2.09 26.05 0.32 30.96 0.00 Z" />
  </symbol>

  <symbol id="MAGE_AND_WITCH" viewBox="0 0 80 80">
    <path d="M 39.39 0.35 C 46.21 21.31 53.00 42.29 59.88 63.23 C 65.10 64.33 72.80 65.28 76.48 69.52 C 77.85 72.68 74.78 74.13 72.48 75.30 C 64.72 78.65 55.33 79.28 46.99 80.00 L 31.72 80.00 C 22.92 79.19 12.49 78.63 4.55 74.41 C 2.36 73.26 0.86 70.99 2.85 68.83 C 6.96 65.25 13.68 64.24 18.90 63.24 C 25.72 42.28 32.55 21.31 39.39 0.35 Z" />
  </symbol>

  <symbol id="RIVER" viewBox="0 0 80 80">
    <path d="M 15.11 18.44 C 22.79 18.67 28.88 26.97 35.63 29.36 C 39.33 30.15 43.80 30.14 47.12 28.07 C 53.03 24.82 57.01 19.89 64.10 18.50 C 70.02 17.64 75.61 19.94 80.00 23.80 L 80.00 29.93 C 75.63 26.66 70.36 24.13 64.77 24.76 C 58.64 25.62 53.49 30.37 48.50 33.66 C 44.17 36.37 39.32 37.63 34.48 35.33 C 28.99 32.68 23.43 26.47 16.82 25.00 C 10.81 23.53 4.52 26.78 0.00 30.52 L 0.00 24.11 C 4.33 20.65 9.36 17.77 15.11 18.44 Z" />
    <path d="M 16.83 30.80 C 23.88 32.58 28.34 38.21 34.63 41.27 C 38.75 42.75 43.47 42.50 47.26 40.23 C 53.10 36.84 57.46 32.02 64.28 30.60 C 69.81 29.76 75.85 32.40 80.00 35.96 L 80.00 42.38 C 75.47 38.43 70.10 36.42 64.04 37.20 C 57.67 38.28 52.70 43.39 47.46 46.53 C 44.02 48.70 39.94 48.99 36.03 48.17 C 29.50 45.92 23.37 38.06 16.12 37.17 C 9.91 36.26 4.67 38.95 0.00 42.74 L 0.00 36.51 C 4.30 32.68 10.98 29.28 16.83 30.80 Z" />
    <path d="M 14.05 42.65 C 21.09 43.01 25.81 48.00 31.39 51.62 C 34.77 54.09 39.03 55.23 43.14 54.12 C 50.20 52.33 54.47 46.03 61.64 43.66 C 67.93 41.07 75.01 44.15 80.00 48.10 L 80.00 54.57 C 74.93 50.21 68.38 48.10 61.79 49.97 C 56.00 52.00 52.15 56.13 47.03 59.02 C 42.25 61.70 36.21 61.44 31.72 58.26 C 26.49 54.85 20.73 48.99 14.07 49.31 C 8.80 48.98 4.03 51.84 0.00 54.92 L 0.00 48.81 C 3.69 45.35 8.92 42.68 14.05 42.65 Z" />
  </symbol>

  <symbol id="RUSSIAN_PROMOS" viewBox="0 0 80 80">
    <path d="M 47.55 0.00 L 48.44 0.00 C 48.90 2.42 49.44 5.20 48.89 7.63 C 46.81 9.70 44.13 10.49 41.43 11.45 C 41.59 6.41 44.22 3.40 47.55 0.00 Z" />
    <path d="M 30.32 0.61 C 34.53 4.01 37.06 8.26 40.95 12.06 C 44.77 15.96 49.74 18.66 54.43 21.54 C 59.61 24.65 66.00 26.20 70.71 29.90 C 65.93 34.37 60.38 31.23 56.02 28.00 C 49.68 23.31 43.32 18.68 36.89 14.13 C 34.58 12.37 31.53 10.36 30.27 7.67 C 29.84 5.40 30.15 2.90 30.32 0.61 Z" />
    <path d="M 36.57 14.91 C 33.52 22.31 25.82 27.88 18.56 30.72 C 14.86 32.34 11.78 30.60 8.21 29.57 C 13.34 26.94 18.93 25.69 24.02 23.02 C 28.62 20.79 32.09 17.24 36.57 14.91 Z" />
    <path d="M 38.26 18.68 C 43.08 20.89 47.06 24.22 50.73 28.00 C 43.08 28.02 35.41 28.63 27.77 28.32 C 31.38 25.23 34.71 21.83 38.26 18.68 Z" />
    <path d="M 38.49 30.38 C 44.64 30.83 50.70 30.02 56.83 30.99 C 56.46 32.48 56.10 33.96 55.73 35.44 C 48.41 35.62 42.31 32.70 35.18 34.12 C 30.52 35.00 26.34 35.25 21.61 34.85 C 21.85 33.85 22.11 32.85 22.38 31.85 C 27.23 29.68 33.27 30.22 38.49 30.38 Z" />
    <path d="M 18.75 33.14 C 19.49 33.79 21.15 34.87 20.83 36.00 C 20.94 38.80 17.62 39.45 15.44 38.89 C 14.48 37.35 13.95 35.70 13.48 33.96 C 15.21 33.60 16.98 33.20 18.75 33.14 Z" />
    <path d="M 59.08 33.14 C 60.99 33.21 62.94 33.56 64.83 33.86 C 64.29 35.25 63.79 36.72 63.04 38.01 C 61.26 38.56 59.27 38.65 57.43 38.88 C 57.89 36.97 58.30 34.94 59.08 33.14 Z" />
    <path d="M 32.19 37.03 C 32.27 39.25 32.34 41.46 32.38 43.68 C 29.52 43.59 26.53 43.84 23.72 43.29 C 22.98 41.86 22.54 40.38 22.14 38.84 C 25.40 37.61 28.75 37.30 32.19 37.03 Z" />
    <path d="M 56.37 38.05 C 56.14 39.18 55.81 40.26 55.38 41.29 C 54.46 45.03 49.14 43.54 46.26 44.03 C 46.19 41.90 46.14 39.77 46.10 37.64 C 49.60 37.41 52.93 37.09 56.37 38.05 Z" />
    <path d="M 18.13 41.98 C 19.70 42.15 21.19 42.62 22.68 43.13 C 21.57 45.79 19.76 46.74 17.15 47.62 C 17.39 45.72 17.66 43.84 18.13 41.98 Z" />
    <path d="M 60.60 41.12 C 60.75 43.04 60.92 44.95 61.15 46.86 C 59.39 46.73 57.63 46.59 55.87 46.44 C 56.82 43.92 58.31 42.47 60.60 41.12 Z" />
    <path d="M 29.70 45.25 C 33.51 46.71 35.31 50.43 40.04 50.16 C 43.77 50.38 45.72 47.09 49.15 45.58 C 51.78 45.70 54.50 46.98 56.93 47.92 C 53.94 50.34 51.12 52.32 47.09 52.30 C 39.12 52.57 29.73 53.50 22.62 49.32 C 24.99 47.12 25.95 44.38 29.70 45.25 Z" />
    <path d="M 58.79 50.26 C 59.45 51.91 60.27 53.49 60.89 55.16 C 58.96 55.16 57.04 55.18 55.12 55.23 C 55.16 53.71 55.24 52.19 55.35 50.68 C 56.49 50.47 57.63 50.30 58.79 50.26 Z" />
    <path d="M 17.85 50.64 C 19.45 50.65 21.04 50.68 22.63 50.72 C 22.62 52.14 22.59 53.55 22.53 54.97 C 21.09 54.92 19.65 54.89 18.21 54.86 C 18.11 53.45 17.99 52.05 17.85 50.64 Z" />
    <path d="M 45.29 53.05 C 48.98 52.79 50.93 53.02 53.99 55.18 C 44.34 56.26 34.60 55.52 24.94 56.81 C 24.55 55.77 24.16 54.73 23.77 53.69 C 31.02 52.15 37.96 53.73 45.29 53.05 Z" />
    <path d="M 25.10 58.37 C 27.46 58.55 29.81 58.93 32.16 59.21 C 31.71 61.52 31.16 63.83 30.86 66.17 C 29.80 70.22 34.88 73.28 36.88 76.38 C 34.94 75.88 33.01 75.35 31.07 74.84 C 29.99 75.90 28.93 76.97 27.87 78.05 C 26.61 76.70 25.34 75.35 24.02 74.05 C 22.12 74.90 20.22 75.75 18.32 76.59 C 19.22 75.08 20.11 73.46 21.28 72.14 C 23.37 71.70 25.58 71.73 27.71 71.56 C 27.54 66.97 26.00 62.80 25.10 58.37 Z" />
    <path d="M 44.87 58.46 C 47.68 58.50 50.49 58.62 53.30 58.69 C 52.64 62.92 51.78 67.11 51.04 71.32 C 53.04 71.52 55.34 71.26 57.24 71.87 C 58.51 73.83 59.07 76.28 59.76 78.49 C 57.70 77.17 55.69 75.80 53.59 74.55 C 52.93 76.36 52.29 78.18 51.63 80.00 L 50.55 80.00 C 49.82 78.56 49.14 77.10 48.44 75.64 C 45.98 76.12 43.52 76.66 41.06 77.16 C 42.51 73.87 44.81 71.33 47.17 68.68 C 47.58 65.38 45.74 61.64 44.87 58.46 Z" />
  </symbol>

  <symbol id="SIEGE" viewBox="0 0 80 80">
    <path d="M 37.99 4.44 C 50.77 4.29 62.11 13.19 67.75 24.21 C 72.49 34.11 75.42 45.04 76.09 56.01 C 76.55 62.33 77.20 68.53 79.31 74.54 C 70.91 75.38 62.44 76.08 54.00 76.01 C 48.55 76.02 42.49 76.10 37.22 74.58 C 34.83 73.88 33.26 72.08 31.82 70.15 C 28.46 65.44 26.92 60.41 24.92 55.11 C 23.79 52.21 21.37 49.04 17.98 48.98 C 14.46 49.60 11.76 52.33 10.78 55.71 C 9.36 59.71 10.16 64.16 9.03 68.13 C 7.22 71.42 3.18 70.83 0.00 71.07 L 0.00 70.76 C 3.21 64.18 2.04 57.72 2.80 50.53 C 3.76 41.42 4.50 32.18 9.09 24.07 C 14.89 13.40 25.39 4.69 37.99 4.44 Z" />
  </symbol>

  <symbol id="SPIEL_DOCH" viewBox="0 0 80 80">
    <path d="M 32.24 17.37 C 31.37 20.79 30.46 24.19 29.52 27.58 C 25.31 25.93 19.60 24.43 15.23 26.15 C 13.03 27.10 12.51 29.99 14.56 31.38 C 19.84 34.43 25.70 34.96 30.41 39.59 C 35.05 43.97 35.24 51.61 31.74 56.72 C 29.47 59.96 25.77 62.01 22.00 63.01 C 14.62 64.88 7.13 63.91 0.07 61.27 C 0.74 57.72 1.56 54.20 2.38 50.68 C 7.20 52.74 13.72 54.65 18.83 52.89 C 21.51 52.13 22.01 48.76 19.94 47.09 C 15.99 44.37 10.97 43.85 7.00 40.99 C 2.77 38.31 -0.10 34.12 0.40 28.93 C 0.81 22.38 5.92 17.67 12.00 16.03 C 18.61 14.39 25.87 14.97 32.24 17.37 Z" />
    <path fill-rule="evenodd" d="M 58.01 15.35 C 64.42 15.88 70.55 18.20 74.91 23.06 C 78.20 26.85 79.63 31.56 80.00 36.50 L 80.00 40.38 C 79.47 48.63 75.73 56.30 68.13 60.13 C 58.69 64.73 46.36 64.13 36.22 62.75 C 36.18 47.25 36.21 31.75 36.20 16.25 C 43.39 15.13 50.75 14.84 58.01 15.35 Z M 39.02 18.57 C 46.67 17.77 54.93 17.18 62.49 18.81 C 69.05 20.43 74.62 24.73 76.40 31.46 C 78.54 40.39 76.94 51.30 68.71 56.69 C 60.33 61.88 48.46 61.30 39.03 60.43 C 38.98 46.48 38.99 32.52 39.02 18.57 Z" />
    <path fill-rule="evenodd" d="M 60.27 25.75 C 64.43 27.62 66.56 31.68 67.09 36.05 C 67.60 41.23 66.87 47.12 62.75 50.76 C 58.92 54.42 53.39 54.84 48.39 54.05 C 48.49 44.26 48.24 34.45 48.51 24.66 C 52.59 24.26 56.48 23.90 60.27 25.75 Z M 51.02 26.96 C 54.28 27.03 57.31 26.93 60.13 28.83 C 63.22 30.86 64.42 34.41 64.46 37.97 C 64.62 42.23 63.81 46.54 60.31 49.32 C 57.51 51.49 54.41 51.61 51.01 51.66 C 51.00 43.43 50.98 35.19 51.02 26.96 Z" />
  </symbol>

  <symbol id="TRADERS_AND_BUILDERS" viewBox="0 0 80 80">
    <path d="M 20.96 16.78 C 25.19 17.78 27.80 19.73 28.57 24.20 C 35.25 22.75 42.10 21.34 48.94 20.96 C 57.68 20.76 66.16 22.18 72.63 28.52 C 74.21 27.53 76.75 27.01 76.95 24.86 C 77.27 22.96 76.86 20.91 74.61 20.76 C 73.14 20.42 72.45 22.34 71.49 23.13 C 73.11 23.13 74.70 22.97 76.31 22.77 C 75.68 23.91 74.63 26.60 72.93 26.15 C 69.14 26.40 68.35 20.82 70.85 18.83 C 72.98 17.38 76.14 17.17 78.19 18.85 C 79.34 19.92 79.56 21.33 80.00 22.78 L 80.00 25.42 C 79.06 28.80 76.83 29.71 73.94 31.10 C 76.27 37.32 76.92 43.80 73.85 49.90 C 72.63 52.56 69.68 53.64 67.88 55.80 C 67.35 57.55 67.30 59.48 67.04 61.29 C 64.59 62.03 63.27 61.93 60.84 61.21 C 60.80 59.31 60.81 57.41 60.85 55.50 C 51.79 55.74 42.76 55.68 33.75 54.66 C 33.66 56.86 33.56 59.06 33.47 61.26 C 31.20 61.74 29.59 61.70 27.34 61.15 C 27.26 59.08 27.18 57.02 27.17 54.95 C 22.25 52.40 17.79 49.31 14.45 44.81 C 10.55 43.75 4.42 43.62 1.95 40.01 C 0.66 37.82 0.76 34.80 0.00 32.37 L 0.00 30.26 C 5.87 27.82 12.34 26.64 18.52 25.22 C 19.01 22.16 19.08 19.39 20.96 16.78 Z" />
  </symbol>

  <symbol id="TOWER" viewBox="0 0 80 80">
    <path d="M 19.05 0.00 L 25.59 0.00 C 25.60 1.51 25.62 3.01 25.63 4.52 C 27.66 4.53 29.69 4.53 31.72 4.53 C 31.73 3.02 31.74 1.51 31.75 0.00 L 36.92 0.00 C 36.95 1.51 36.97 3.02 36.99 4.53 C 39.01 4.53 41.03 4.53 43.05 4.53 C 43.07 3.02 43.09 1.51 43.12 0.00 L 48.32 0.00 C 48.34 1.51 48.35 3.03 48.36 4.54 C 50.39 4.53 52.41 4.53 54.44 4.53 C 54.45 3.02 54.47 1.51 54.48 0.00 L 61.01 0.00 C 60.69 5.79 60.35 11.58 59.96 17.36 C 58.24 17.36 56.52 17.37 54.79 17.37 C 55.56 38.23 56.33 59.14 57.13 80.00 L 22.95 80.00 C 23.72 59.13 24.49 38.25 25.28 17.38 C 23.55 17.37 21.82 17.36 20.08 17.36 C 19.72 11.57 19.38 5.79 19.05 0.00 Z" />
  </symbol>

  <!-- <symbol id="TUNNEL" viewBox="0 0 80 80">
    <path d="M 39.81 2.12 C 51.63 10.63 63.39 19.26 75.19 27.80 C 76.86 28.97 78.48 30.22 80.00 31.59 L 80.00 31.91 L 79.54 31.71 C 74.56 47.14 69.52 62.54 64.54 77.97 C 48.07 78.04 31.60 77.98 15.13 78.00 C 10.05 62.52 5.07 47.00 0.00 31.51 L 0.00 31.03 C 13.28 21.41 26.52 11.71 39.81 2.12 Z" />
  </symbol> -->

  <symbol id="TUNNEL" viewBox="20 20 160 160">
    <path d="M 21.21 48.23 C 27.74 47.58 34.40 48.17 40.96 48.02 C 40.99 52.00 41.01 55.99 41.04 59.98 C 47.01 60.02 52.99 60.02 58.96 59.98 C 58.98 55.99 59.01 52.00 59.04 48.01 C 69.68 47.99 80.32 47.99 90.96 48.01 C 90.99 52.00 91.01 55.99 91.04 59.98 C 97.01 60.02 102.99 60.02 108.96 59.98 C 108.99 55.99 109.01 52.00 109.04 48.01 C 119.68 47.99 130.32 47.99 140.96 48.01 C 140.99 52.00 141.02 55.99 141.04 59.98 C 147.01 60.02 152.99 60.02 158.96 59.98 C 158.99 56.00 159.01 52.02 159.04 48.04 C 165.69 47.97 172.34 47.96 178.98 48.04 C 179.01 82.68 179.02 117.33 178.98 151.97 C 163.00 152.01 147.01 152.03 131.03 151.96 C 130.98 145.63 131.02 139.29 131.04 132.96 C 130.93 120.31 123.64 108.17 111.82 103.22 C 106.27 101.38 99.80 101.91 94.02 102.06 C 86.08 102.35 79.61 107.94 74.92 113.88 C 71.41 119.49 68.84 126.26 68.96 132.96 C 68.98 139.29 69.02 145.63 68.97 151.96 C 52.99 152.03 37.00 152.01 21.02 151.97 C 20.96 121.65 21.03 91.32 20.99 61.00 C 21.02 56.77 20.75 52.45 21.21 48.23 Z" />
  </symbol>

  <symbol id="UNDER_THE_BIG_TOP" viewBox="0 0 80 80">
    <path d="M 40.00 14.33 C 40.90 17.39 40.41 20.81 43.72 22.25 C 53.94 28.27 64.53 33.69 75.08 39.11 C 74.58 39.51 74.08 39.92 73.58 40.32 C 73.74 48.79 76.32 57.34 78.58 65.47 C 66.66 65.44 54.75 65.45 42.83 65.46 C 38.15 60.11 35.82 52.23 33.12 45.73 C 31.33 52.37 29.46 60.00 25.15 65.49 C 16.90 65.40 8.65 65.49 0.39 65.44 C 3.60 57.52 6.34 48.86 6.46 40.26 C 5.80 39.94 5.14 39.62 4.48 39.30 C 15.87 33.48 27.35 27.67 38.28 21.01 C 38.96 18.81 39.57 16.59 40.00 14.33 Z" />
  </symbol>

  <symbol id="WINTER" viewBox="0 0 455 455">
    <path d="M 214.44 0.00 L 243.72 0.00 L 244.67 0.10 L 245.53 0.26 C 248.93 1.22 252.42 2.46 254.59 5.42 C 256.68 8.27 257.04 11.51 257.15 14.95 C 257.29 26.46 256.85 37.99 257.34 49.49 C 264.39 43.94 270.35 37.04 277.12 31.14 C 280.35 28.11 285.72 27.96 289.71 29.25 C 293.07 30.82 295.76 34.03 298.57 36.42 C 302.15 39.80 306.63 42.96 308.04 47.93 C 309.87 53.98 308.14 60.23 303.60 64.59 C 288.65 79.01 273.93 93.56 259.13 108.12 C 256.42 110.63 257.26 113.65 257.07 116.98 C 257.31 137.77 256.93 158.58 257.26 179.36 C 263.58 176.48 269.34 172.77 275.38 169.39 C 286.65 163.00 297.85 156.48 309.16 150.18 C 310.88 149.08 313.27 147.97 313.87 145.88 C 315.08 142.59 315.78 139.09 316.70 135.72 C 321.25 118.61 325.83 101.58 330.36 84.46 C 331.46 80.08 333.99 76.75 338.31 75.22 C 343.53 73.15 348.55 75.11 353.72 76.31 C 357.45 77.37 362.18 78.25 365.17 80.83 C 368.63 83.98 370.63 88.79 369.52 93.46 C 367.81 101.64 365.54 109.68 364.01 117.90 C 372.99 113.10 381.53 107.48 390.28 102.26 C 394.28 99.88 399.52 97.08 404.26 98.71 C 408.57 100.10 410.54 103.64 412.77 107.25 C 416.80 114.18 421.01 121.01 425.13 127.88 C 427.64 131.76 427.27 136.54 426.92 140.95 C 426.78 143.22 424.84 144.85 423.24 146.24 C 419.28 149.38 414.48 151.59 410.12 154.13 C 403.80 157.79 397.17 161.06 391.16 165.16 C 398.67 168.08 406.54 169.42 414.18 171.83 C 418.74 173.23 422.59 176.58 423.72 181.33 C 424.60 185.07 423.08 189.44 422.15 193.09 C 420.94 197.14 420.19 201.55 418.34 205.36 C 415.53 210.78 408.53 212.98 402.87 211.26 C 386.13 206.68 369.25 202.07 352.53 197.48 C 348.78 196.50 344.94 195.05 341.07 194.76 C 338.41 195.47 335.93 197.15 333.55 198.52 C 317.12 208.36 300.27 217.55 283.95 227.59 C 301.10 237.64 318.46 247.35 335.58 257.45 C 337.29 258.39 339.16 259.57 341.10 259.89 C 343.01 259.93 345.01 259.35 346.85 258.88 C 364.34 253.89 381.94 249.31 399.44 244.38 C 403.57 243.30 407.99 242.14 412.11 243.89 C 416.14 245.54 418.77 248.91 419.84 253.08 C 421.24 258.42 422.93 263.76 423.87 269.21 C 424.79 275.11 420.95 280.52 415.46 282.44 C 407.41 285.27 398.92 286.56 390.90 289.60 C 400.16 295.30 409.82 300.36 419.28 305.73 C 422.50 307.60 426.36 310.02 426.89 314.07 C 427.29 318.56 427.64 323.11 425.05 327.04 C 421.13 333.47 417.22 339.91 413.43 346.42 C 411.46 349.66 408.99 353.78 405.43 355.43 C 401.17 357.32 396.87 356.14 392.97 354.03 C 383.23 348.47 373.92 342.12 364.03 336.84 C 365.54 345.14 367.90 353.26 369.56 361.53 C 370.83 367.20 367.53 372.88 362.53 375.50 C 358.75 377.39 354.36 378.19 350.30 379.31 C 345.46 380.54 340.84 381.42 336.31 378.66 C 332.63 376.49 330.98 372.94 329.97 368.94 C 324.86 349.43 319.58 330.02 314.46 310.50 C 313.85 307.35 311.94 306.14 309.33 304.67 C 291.86 294.96 274.70 284.69 257.17 275.09 C 257.05 296.41 257.24 317.73 257.07 339.04 C 257.11 340.85 257.06 342.77 257.52 344.53 C 259.21 347.29 261.95 349.49 264.21 351.79 C 276.95 364.38 289.52 377.15 302.29 389.71 C 305.58 393.01 308.44 396.24 308.71 401.15 C 309.05 406.37 306.31 410.26 302.79 413.78 C 299.43 417.06 296.25 420.67 292.54 423.55 C 287.88 427.01 281.17 427.37 276.77 423.26 C 270.20 417.26 264.05 410.79 257.23 405.04 C 257.03 416.03 257.16 427.03 257.19 438.02 C 257.11 441.31 257.17 444.52 255.48 447.47 C 253.41 451.12 249.87 453.13 246.26 455.00 L 212.12 455.00 C 208.35 453.65 204.75 451.95 202.67 448.33 C 200.77 445.11 200.81 441.63 200.73 438.01 C 200.77 427.02 200.85 416.02 200.72 405.02 C 194.40 410.28 188.73 416.15 182.75 421.76 C 179.77 424.55 176.18 426.43 172.00 426.23 C 168.64 426.21 166.08 424.50 163.69 422.32 C 160.24 419.10 156.65 416.02 153.26 412.73 C 149.89 409.42 147.71 405.12 148.41 400.30 C 148.82 396.85 150.90 394.60 153.21 392.21 C 166.80 378.81 180.20 365.20 193.77 351.77 C 196.01 349.47 198.77 347.27 200.41 344.50 C 201.08 341.44 200.78 338.11 200.82 334.99 C 200.71 315.03 200.83 295.07 200.76 275.11 C 183.44 284.51 166.54 294.71 149.28 304.25 C 146.88 305.76 144.42 306.60 143.71 309.65 C 139.32 325.90 135.01 342.34 130.63 358.62 C 129.40 363.01 128.55 367.63 126.81 371.85 C 124.79 376.54 120.34 380.46 115.03 380.49 C 110.46 380.44 105.81 378.73 101.38 377.68 C 97.86 376.67 93.53 375.90 91.17 372.83 C 87.80 368.44 87.23 362.74 88.46 357.45 C 90.13 350.52 92.36 343.75 93.90 336.79 C 85.13 341.56 76.72 347.03 68.16 352.18 C 63.87 354.77 59.33 357.35 54.12 356.03 C 49.88 354.97 47.45 351.19 45.27 347.72 C 40.94 340.39 36.53 333.11 32.17 325.79 C 30.14 322.13 27.92 318.08 29.87 313.86 C 32.25 308.42 38.37 306.00 43.20 303.18 C 51.13 298.60 59.38 294.47 67.04 289.44 C 59.45 286.96 51.63 285.33 44.00 283.01 C 40.16 281.83 36.80 279.69 35.04 275.96 C 33.10 272.05 34.08 268.13 35.08 264.13 C 36.27 259.93 37.19 255.65 38.57 251.51 C 40.05 247.01 44.34 243.56 49.04 243.03 C 52.42 242.73 56.07 243.73 59.32 244.61 C 76.55 249.49 93.89 253.99 111.11 258.90 C 112.96 259.38 114.96 259.96 116.88 259.89 C 119.28 259.40 121.54 257.86 123.65 256.67 C 140.30 246.75 157.39 237.53 173.93 227.42 C 157.70 217.81 141.28 208.52 125.04 198.94 C 122.46 197.45 119.79 195.62 116.91 194.79 C 114.89 194.82 112.82 195.41 110.86 195.92 C 93.39 200.86 75.83 205.48 58.34 210.40 C 53.91 211.70 49.82 212.70 45.40 210.66 C 40.84 208.80 38.84 204.83 37.69 200.29 C 36.39 194.93 34.33 189.50 33.93 183.99 C 33.76 178.37 37.89 173.77 43.04 172.07 C 50.87 169.46 59.04 168.12 66.79 165.17 C 59.48 160.34 51.58 156.40 43.99 152.02 C 39.05 149.21 32.66 146.24 29.95 140.97 C 27.85 136.94 30.10 132.66 32.07 129.09 C 36.42 121.77 40.88 114.53 45.17 107.18 C 47.28 103.79 49.14 100.38 53.12 98.92 C 57.92 97.01 62.93 99.54 67.06 101.93 C 76.03 107.28 84.81 112.98 93.95 118.04 C 92.32 109.57 89.95 101.25 88.22 92.81 C 86.98 87.82 90.47 82.23 94.48 79.51 C 99.30 77.18 104.88 76.23 110.05 74.89 C 114.72 73.68 119.68 74.36 123.36 77.64 C 126.39 80.34 127.37 83.86 128.42 87.62 C 132.79 104.48 137.43 121.26 141.81 138.11 C 142.65 141.14 143.19 144.53 144.71 147.29 C 145.84 148.49 147.39 149.38 148.80 150.22 C 160.11 156.51 171.31 163.04 182.58 169.43 C 188.61 172.79 194.34 176.52 200.66 179.36 C 200.97 158.57 200.61 137.77 200.84 116.98 C 200.82 114.83 200.92 112.56 200.45 110.45 C 198.46 107.10 194.97 104.53 192.27 101.73 C 179.88 89.44 167.39 77.27 154.83 65.16 C 150.27 60.91 147.90 54.83 149.63 48.67 C 150.91 43.37 155.10 40.38 158.87 36.84 C 161.86 34.25 164.68 31.18 168.05 29.09 C 171.79 26.87 176.42 27.54 179.67 30.31 C 186.92 36.34 193.16 43.66 200.59 49.48 C 201.00 38.66 200.70 27.81 200.73 16.99 C 200.81 12.92 200.77 8.77 203.35 5.36 C 206.09 1.79 210.20 0.68 214.44 0.00 Z" />
  </symbol>

  <symbol id="WIND_ROSES" viewBox="0 0 240 240">
    <path d="M 120.02 0.66 C 122.36 1.83 123.77 3.83 124.86 6.13 C 130.10 18.14 133.65 30.60 136.80 43.28 C 138.59 51.04 141.45 58.24 142.51 66.16 C 143.37 73.19 146.32 79.08 146.70 86.13 C 146.77 87.03 146.42 87.87 145.66 88.65 C 142.18 92.48 138.27 95.94 134.68 99.68 C 129.69 104.37 125.25 109.80 119.86 114.01 C 118.01 112.95 116.50 111.49 115.02 109.98 C 110.44 105.23 105.75 100.59 101.08 95.92 C 98.77 93.59 96.13 91.32 94.23 88.67 C 94.51 83.41 96.21 78.21 97.12 73.02 C 101.74 52.50 106.39 31.32 113.61 11.53 C 115.14 7.91 116.70 2.99 120.02 0.66 Z" />
    <path d="M 154.32 93.69 C 165.72 96.19 177.13 98.74 188.48 101.47 C 203.44 105.36 219.35 109.21 233.52 115.45 C 235.32 116.44 238.94 117.88 239.38 120.01 C 237.75 123.79 231.25 125.23 227.74 126.81 C 224.37 128.10 221.17 129.57 217.70 130.57 C 201.41 135.23 185.02 139.54 168.52 143.36 C 163.71 144.38 158.86 145.61 153.96 146.05 C 150.98 146.63 148.98 143.75 147.04 141.97 C 140.72 135.27 133.91 129.01 127.69 122.24 C 125.91 120.23 126.40 118.88 128.08 117.08 C 134.59 110.27 141.47 103.79 147.97 96.97 C 149.97 95.26 151.32 92.69 154.32 93.69 Z" />
    <path d="M 87.85 93.76 C 95.20 100.11 101.63 107.61 108.74 114.26 C 110.28 115.96 113.35 118.31 113.04 120.83 C 112.14 122.51 110.66 123.98 109.33 125.33 C 103.59 130.92 97.93 136.60 92.34 142.34 C 90.98 143.69 89.52 145.17 87.86 146.13 C 82.74 146.35 77.06 144.16 72.11 142.97 C 54.27 139.07 36.21 134.96 18.88 129.13 C 12.89 126.95 5.96 124.80 0.92 120.81 C 1.55 119.48 2.16 118.27 3.47 117.49 C 7.50 114.92 12.34 113.34 16.85 111.86 C 25.67 108.80 34.72 106.38 43.71 103.88 C 58.56 101.18 73.04 96.80 87.85 93.76 Z" />
    <path d="M 119.88 125.99 C 123.06 127.96 125.64 131.05 128.30 133.70 C 133.13 138.54 137.92 143.42 142.82 148.18 C 144.13 149.48 145.54 150.82 146.55 152.37 C 146.78 156.01 145.30 159.88 144.68 163.47 C 143.10 172.58 140.46 181.41 138.41 190.42 C 137.18 195.75 136.13 201.08 134.22 206.23 C 131.73 212.98 130.43 220.04 127.76 226.74 C 126.04 230.98 124.28 235.92 121.02 239.21 C 117.01 237.34 115.55 232.88 113.89 229.12 C 105.49 206.17 101.13 183.57 95.33 159.85 C 94.77 157.22 93.86 154.12 94.39 151.44 C 95.86 149.06 98.17 147.11 100.13 145.13 C 105.49 139.83 110.88 134.54 116.08 129.08 C 117.23 127.90 118.44 126.81 119.88 125.99 Z" />
  </symbol>

  <symbol id="WATCHTOWERS" viewBox="0 0 600 600">
    <path d="M 0 68 H 111 L 113 165 H 236 L 238 68 H 362 L 364 165 H 487 L 489 68 H 600 V 260 L 516 345 L 543 527 H 57 L 84 345 L 0 260 Z" />
  </symbol>
</svg>
