<svg xmlns="http://www.w3.org/2000/svg">
  <symbol id="catalonia" viewBox="0 0 810 540">
    <rect width="810" height="540" fill="#FCDD09"/>
    <path stroke="#DA121A" stroke-width="60" d="M0,90H810m0,120H0m0,120H810m0,120H0"/>
  </symbol>

  <symbol id="slovakia" viewBox="0 0 450 300">
    <defs>
      <clipPath id="slovakia_clip">
        <path d="m 171.821,258.249 c -26.762,-12.893 -65.044,-38.479 -65.044,-89.094 0,-50.614 2.42,-73.633 2.42,-73.633 l 62.625,0 62.627,0 c 0,0 2.422,23.019 2.422,73.633 -0.001,50.616 -38.286,76.201 -65.05,89.094 z" />
     </clipPath>
    </defs>
    <rect width="450" height="100" x="0" y="100" style="fill:#0b4ea2" />
    <rect width="450" height="100" x="0" y="0" style="fill:#ffffff" />
    <rect width="450" height="100" x="0" y="200" style="fill:#ee1c25" />
    <path d="m 87.456909,146.27493 c 0,-44.30107 2.625139,-69.138791 2.625139,-69.138791 l 59.062582,0 59.06433,0 c 0,0 2.626,24.838591 2.626,69.138791 0,47.1579 -35.82685,70.67568 -59.41578,82.0371 l -2.27541,1.09605 -2.27281,-1.09605 c -23.58633,-11.36056 -59.414051,-34.8792 -59.414051,-82.0371 z" style="fill:#ffffff" />
    <path d="m 149.1455,223.59199 c -23.22445,-11.18873 -56.446124,-33.39263 -56.446124,-77.31706 0,-43.92357 2.100112,-63.899791 2.100112,-63.899791 l 54.346882,0 54.34862,0 c 0,0 2.10185,19.976221 2.10185,63.899791 -8.7e-4,43.92529 -33.22515,66.12833 -56.45134,77.31706 z" style="fill:#ee1c25" />
    <path d="m 154.11287,134.75903 c 6.28819,0.10153 18.55908,0.34799 29.484,-3.30811 0,0 -0.28898,3.9095 -0.28898,8.46379 0,4.55516 0.28898,8.46467 0.28898,8.46467 -10.02152,-3.35324 -22.39742,-3.42353 -29.484,-3.33328 l 0,24.26062 -9.933,0 0,-24.26062 c -7.08744,-0.0902 -19.46161,-0.02 -29.484,3.33328 0,0 0.28898,-3.90951 0.28898,-8.46467 0,-4.55429 -0.28898,-8.46379 -0.28898,-8.46379 10.92492,3.6561 23.19495,3.40964 29.484,3.30811 l 0,-15.23622 c -5.73192,-0.0512 -13.99177,0.22303 -23.33033,3.34803 0,0 0.28899,-3.90951 0.28899,-8.46467 0,-4.55429 -0.28899,-8.46379 -0.28899,-8.46379 9.32554,3.11979 17.57411,3.39836 23.30429,3.34803 -0.29419,-9.648361 -3.10504,-21.808181 -3.10504,-21.808181 0,0 5.78485,0.45213 8.09671,0.45213 2.31533,0 8.09845,-0.45213 8.09845,-0.45213 0,0 -2.80999,12.16068 -3.10504,21.808181 5.73104,0.0495 13.97962,-0.22824 23.30516,-3.34803 0,0 -0.28899,3.9095 -0.28899,8.46379 0,4.55516 0.28899,8.46467 0.28899,8.46467 -9.33942,-3.125 -17.59928,-3.39923 -23.3312,-3.34803 l 0,15.23622 0,0 z" style="fill:#ffffff" />
    <g transform="matrix(0.8678145,0,0,0.8678145,0.03674757,-0.520237)" clip-path="url(#slovakia_clip)">
      <path d="m 170.643,274.853 -55.454,-49.43 c 0,0 7.089,-22.927 20.927,-22.927 10.996,0 15.009,8.865 15.009,8.865 0,0 7.22,-18.689 20.696,-18.689 13.479,0 20.699,18.689 20.699,18.689 0,0 4.013,-8.865 15.01,-8.865 13.838,0 20.927,22.927 20.927,22.927 l -57.814,49.43 z" style="fill:#0b4ea2;fill-opacity:1;fill-rule:evenodd" />
    </g>
    <path style="opacity:1;color:black;fill:black;fill-opacity:1;fill-rule:nonzero;stroke:none;stroke-width:5;stroke-linecap:butt;stroke-linejoin:miter;marker:none;marker-start:none;marker-mid:none;marker-end:none;stroke-miterlimit:4;stroke-dasharray:none;stroke-dashoffset:0;stroke-opacity:1;visibility:visible;display:inline;overflow:visible" d="M 0.31016708,0.16528936 L 0.31016708,299.63931 L 449.85463,299.63931 L 449.85463,0.16528936 L 0.31016708,0.16528936 z M 3.679474,3.279329 L 445.48533,3.279329 L 445.48533,295.52529 L 3.679474,295.52529 L 3.679474,3.279329 z "/>
  </symbol>
  
  <symbol id="great-britain" viewBox="0 0 50 30">
    <clipPath id="great_britain_clip">
      <path d="M25,15h25v15zv15h-25zh-25v-15zv-15h25z"/>
    </clipPath>
    <path d="M0,0v30h50v-30z" fill="#012169"/>
    <path d="M0,0 50,30M50,0 0,30" stroke="#fff" stroke-width="6"/>
    <path d="M0,0 50,30M50,0 0,30" clip-path="url(#great_britain_clip)" stroke="#C8102E" stroke-width="4"/>
    <path d="M-1 11h22v-12h8v12h22v8h-22v12h-8v-12h-22z" fill="#C8102E" stroke="#FFF" stroke-width="2"/>
  </symbol>
  
  
  <symbol id="france" viewBox="0 0 900 600">
    <rect width="900" height="600" fill="#ED2939"/>
    <rect width="600" height="600" fill="#fff"/>
    <rect width="300" height="600" fill="#002395"/>
  </symbol>
  
  <symbol id="czechia" viewBox="0 0 900 600">
    <rect width="900" height="600" fill="#d7141a"/>
    <rect width="900" height="300" fill="#fff"/>
    <path d="M 450,300 0,0 V 600 z" fill="#11457e"/>
  </symbol>


  <symbol id="germany" viewBox="0 0 5 3">
    <rect id="black_stripe" width="5" height="3" y="0" x="0" fill="#000"/>
    <rect id="red_stripe" width="5" height="2" y="1" x="0" fill="#D00"/>
    <rect id="gold_stripe" width="5" height="1" y="2" x="0" fill="#FFCE00"/>
  </symbol>

  <symbol id="latvia" viewBox="0 0 1200 600">
   <path fill="#9E3039" d="M0 0h1200v600H0"/>
   <path fill="#FFF" d="M0 240h1200v120H0"/>
  </symbol>
  
  <symbol id="russia-anti-war" viewBox="0 0 900 600">
    <path fill="#fff" d="M0 0h900v600H0z"/>
    <path fill="#0083d6" d="M0 200h900v200H0z"/>
  </symbol>
  
  <symbol id="spain-civil" viewBox="0 0 750 500">
    <rect width="750" height="500" fill="#c60b1e"/>
    <rect width="750" height="250" fill="#ffc400" y="125"/>
  </symbol>

  <symbol id="poland" viewBox="0 0 8 5">
    <rect width="8" height="5" fill="#dc143c"/>
    <rect width="8" height="2.5" fill="#fff"/>
  </symbol>
  
  <symbol id="nederland" viewBox="0 0 9 6">
    <rect fill="#21468B" width="9" height="6"/>
    <rect fill="#FFF" width="9" height="4"/>
    <rect fill="#AE1C28" width="9" height="2"/>
  </symbol>
  
  <symbol id="china" viewBox="0 0 2230 1646.306">
  <rect
      width="2230"
      height="1646.306"
      fill="#e20212"
  />
    <g>
			<polygon fill="#FFDE00" points="389.063,730.822 357.932,635.01 326.801,730.822 226.058,730.822 307.561,790.037 
				276.43,885.849 357.932,826.633 439.435,885.849 408.303,790.037 489.806,730.822 			"/>
			<polygon fill="#FFDE00" points="582.124,651.257 599.401,680.053 602.349,646.601 635.074,639.068 604.171,625.927 
				607.119,592.476 585.071,617.806 554.168,604.665 571.446,633.46 549.399,658.79 			"/>
			<polygon fill="#FFDE00" points="668.801,739.743 673.55,772.986 689.248,743.301 722.331,749.057 698.949,724.954 
				714.647,695.268 684.498,710.058 661.117,685.955 665.866,719.198 635.717,733.987 			"/>
			<polygon fill="#FFDE00" points="724.89,850.261 691.331,851.465 679.815,819.92 670.59,852.209 637.031,853.413 664.888,872.165 
				655.663,904.453 682.105,883.754 709.963,902.505 698.447,870.961 			"/>
			<polygon fill="#FFDE00" points="605.34,915.303 584.361,941.525 552.94,929.677 571.396,957.731 550.419,983.953 
				582.803,975.069 601.26,1003.124 602.818,969.579 635.203,960.695 603.781,948.847 			"/>
    </g>
  </symbol>

  <symbol id="romania" viewBox="0 0 3 2">
    <rect width="3" height="2" x="0" y="0" fill="#002B7F"/>
    <rect width="2" height="2" x="1" y="0" fill="#FCD116"/>
    <rect width="1" height="2" x="2" y="0" fill="#CE1126"/>
  </symbol>
</svg>
