<svg xmlns="http://www.w3.org/2000/svg">
  <symbol id="small-follower" viewBox="0 0 200 200">
    <path
      d="M 98.00 5.17 C 104.82 5.06 112.69 6.53 118.19 10.81 C 120.78 13.16 123.44 15.63 125.58 18.40 C 129.75 25.42 132.55 33.20 133.59 41.31 C 133.91 45.08 135.96 47.90 138.25 50.75 C 140.33 52.96 143.86 53.73 146.70 54.43 C 157.39 56.97 167.47 60.90 177.39 65.59 C 181.41 67.49 185.56 69.00 188.05 72.95 C 192.28 78.31 192.57 85.51 192.27 92.04 C 191.92 97.05 187.59 100.59 183.14 102.13 C 175.55 104.86 168.02 107.73 160.42 110.42 C 158.53 111.16 156.55 111.84 155.07 113.29 C 154.69 114.40 154.92 115.36 155.78 116.17 C 158.88 119.85 161.09 124.13 164.13 127.86 C 166.94 132.04 170.11 135.95 172.77 140.23 C 178.95 149.10 186.46 158.25 190.84 168.16 C 193.27 173.56 194.45 179.25 193.11 185.11 C 192.51 187.56 190.55 189.44 188.17 190.16 C 182.09 192.33 176.34 192.02 170.01 192.24 C 157.67 192.62 145.34 192.93 133.00 193.34 C 128.33 193.40 122.63 193.78 118.32 191.75 C 112.89 186.39 111.01 180.14 107.34 173.67 C 104.98 169.37 103.20 164.73 100.30 160.88 C 96.11 168.60 92.36 176.54 88.36 184.36 C 87.15 187.02 84.92 188.05 82.70 189.72 C 79.89 191.72 76.49 192.72 73.04 192.62 C 56.07 192.56 39.05 192.66 22.09 192.58 C 16.79 192.14 9.84 188.98 8.88 183.10 C 7.08 174.62 9.46 165.90 13.30 158.31 C 16.98 151.69 21.93 146.24 26.03 140.02 C 32.49 131.28 38.81 122.51 45.35 113.82 C 42.23 110.34 37.51 110.25 33.32 108.65 C 28.00 106.69 22.65 104.74 17.37 102.66 C 12.14 100.46 9.42 95.54 8.93 90.05 C 8.57 84.74 8.18 78.42 10.41 73.47 C 13.70 68.64 18.43 65.91 23.69 63.68 C 31.87 60.20 40.20 57.23 48.76 54.83 C 52.50 53.86 55.88 52.39 58.67 49.65 C 62.38 44.92 61.09 39.79 62.34 34.29 C 64.22 27.07 66.37 20.07 71.28 14.28 C 78.92 7.91 88.24 5.62 98.00 5.17 Z"
      stroke="black"
      stroke-width="8"
    />
  </symbol>

  <symbol id="big-follower" viewBox="0 0 200 200">
    <path
      d="M 98.00 5.17 C 104.82 5.06 112.69 6.53 118.19 10.81 C 120.78 13.16 123.44 15.63 125.58 18.40 C 129.75 25.42 132.55 33.20 133.59 41.31 C 133.91 45.08 135.96 47.90 138.25 50.75 C 140.33 52.96 143.86 53.73 146.70 54.43 C 157.39 56.97 167.47 60.90 177.39 65.59 C 181.41 67.49 185.56 69.00 188.05 72.95 C 192.28 78.31 192.57 85.51 192.27 92.04 C 191.92 97.05 187.59 100.59 183.14 102.13 C 175.55 104.86 168.02 107.73 160.42 110.42 C 158.53 111.16 156.55 111.84 155.07 113.29 C 154.69 114.40 154.92 115.36 155.78 116.17 C 158.88 119.85 161.09 124.13 164.13 127.86 C 166.94 132.04 170.11 135.95 172.77 140.23 C 178.95 149.10 186.46 158.25 190.84 168.16 C 193.27 173.56 194.45 179.25 193.11 185.11 C 192.51 187.56 190.55 189.44 188.17 190.16 C 182.09 192.33 176.34 192.02 170.01 192.24 C 157.67 192.62 145.34 192.93 133.00 193.34 C 128.33 193.40 122.63 193.78 118.32 191.75 C 112.89 186.39 111.01 180.14 107.34 173.67 C 104.98 169.37 103.20 164.73 100.30 160.88 C 96.11 168.60 92.36 176.54 88.36 184.36 C 87.15 187.02 84.92 188.05 82.70 189.72 C 79.89 191.72 76.49 192.72 73.04 192.62 C 56.07 192.56 39.05 192.66 22.09 192.58 C 16.79 192.14 9.84 188.98 8.88 183.10 C 7.08 174.62 9.46 165.90 13.30 158.31 C 16.98 151.69 21.93 146.24 26.03 140.02 C 32.49 131.28 38.81 122.51 45.35 113.82 C 42.23 110.34 37.51 110.25 33.32 108.65 C 28.00 106.69 22.65 104.74 17.37 102.66 C 12.14 100.46 9.42 95.54 8.93 90.05 C 8.57 84.74 8.18 78.42 10.41 73.47 C 13.70 68.64 18.43 65.91 23.69 63.68 C 31.87 60.20 40.20 57.23 48.76 54.83 C 52.50 53.86 55.88 52.39 58.67 49.65 C 62.38 44.92 61.09 39.79 62.34 34.29 C 64.22 27.07 66.37 20.07 71.28 14.28 C 78.92 7.91 88.24 5.62 98.00 5.17 Z"
      stroke="black"
      stroke-width="8"
    />
    <text x="72" y="124" fill="currentColor" style="font-size: 96px; font-weight: 600">2</text>
  </symbol>

  <symbol id="abbot" viewBox="0 0 200 200">
    <path
      d="M 100.96 7.36 C 105.45 8.60 108.83 13.70 112.64 16.37 C 118.52 20.47 123.28 25.66 128.35 30.67 C 129.95 32.48 131.98 34.39 131.70 37.03 C 130.85 45.59 124.27 53.45 123.50 61.94 C 123.21 68.73 123.13 75.53 124.52 82.14 C 125.33 85.97 125.29 90.38 126.92 93.95 C 128.41 95.85 131.39 96.67 133.56 97.55 C 140.93 100.06 147.55 103.86 155.09 105.83 C 159.98 106.97 164.03 110.26 166.59 114.52 C 168.56 118.67 167.53 123.97 163.30 126.28 C 157.91 129.28 151.57 129.56 146.13 132.68 C 148.48 137.72 150.63 142.57 153.86 147.14 C 157.89 152.80 162.61 157.83 166.23 163.80 C 168.60 167.79 172.68 172.14 172.55 176.97 C 172.59 181.46 172.85 186.06 169.52 189.54 C 166.59 193.05 162.52 194.52 158.02 194.54 C 119.33 194.70 80.67 194.70 41.97 194.54 C 36.13 194.65 30.58 191.49 28.29 186.03 C 27.19 182.37 27.21 178.11 27.75 174.36 C 28.90 170.34 32.04 166.76 34.18 163.18 C 38.50 156.14 44.30 150.57 48.50 143.51 C 50.60 140.04 52.18 136.45 53.84 132.76 C 48.06 129.41 41.25 128.77 35.61 125.35 C 32.39 123.27 32.15 119.55 32.76 116.10 C 33.55 113.55 35.67 111.31 37.62 109.56 C 41.51 105.87 47.33 105.60 52.35 103.34 C 58.19 100.76 64.07 98.40 70.03 96.09 C 74.99 94.55 74.14 88.56 75.10 84.50 C 76.54 77.58 76.86 71.01 76.61 63.96 C 76.81 54.83 69.18 46.11 68.30 37.03 C 68.02 34.39 70.05 32.48 71.65 30.67 C 76.86 25.46 81.86 20.17 87.92 15.92 C 91.68 13.31 95.98 6.61 100.96 7.36 Z"
      stroke="black"
      stroke-width="8"
    />
  </symbol>

  <symbol id="phantom" viewBox="0 0 200 200">
    <path fill-rule="evenodd"
      d="M 98.00 5.17 C 104.82 5.06 112.69 6.53 118.19 10.81 C 120.78 13.16 123.44 15.63 125.58 18.40 C 129.75 25.42 132.55 33.20 133.59 41.31 C 133.91 45.08 135.96 47.90 138.25 50.75 C 140.33 52.96 143.86 53.73 146.70 54.43 C 157.39 56.97 167.47 60.90 177.39 65.59 C 181.41 67.49 185.56 69.00 188.05 72.95 C 192.28 78.31 192.57 85.51 192.27 92.04 C 191.92 97.05 187.59 100.59 183.14 102.13 C 175.55 104.86 168.02 107.73 160.42 110.42 C 158.53 111.16 156.55 111.84 155.07 113.29 C 154.69 114.40 154.92 115.36 155.78 116.17 C 158.88 119.85 161.09 124.13 164.13 127.86 C 166.94 132.04 170.11 135.95 172.77 140.23 C 178.95 149.10 186.46 158.25 190.84 168.16 C 193.27 173.56 194.45 179.25 193.11 185.11 C 192.51 187.56 190.55 189.44 188.17 190.16 C 182.09 192.33 176.34 192.02 170.01 192.24 C 157.67 192.62 145.34 192.93 133.00 193.34 C 128.33 193.40 122.63 193.78 118.32 191.75 C 112.89 186.39 111.01 180.14 107.34 173.67 C 104.98 169.37 103.20 164.73 100.30 160.88 C 96.11 168.60 92.36 176.54 88.36 184.36 C 87.15 187.02 84.92 188.05 82.70 189.72 C 79.89 191.72 76.49 192.72 73.04 192.62 C 56.07 192.56 39.05 192.66 22.09 192.58 C 16.79 192.14 9.84 188.98 8.88 183.10 C 7.08 174.62 9.46 165.90 13.30 158.31 C 16.98 151.69 21.93 146.24 26.03 140.02 C 32.49 131.28 38.81 122.51 45.35 113.82 C 42.23 110.34 37.51 110.25 33.32 108.65 C 28.00 106.69 22.65 104.74 17.37 102.66 C 12.14 100.46 9.42 95.54 8.93 90.05 C 8.57 84.74 8.18 78.42 10.41 73.47 C 13.70 68.64 18.43 65.91 23.69 63.68 C 31.87 60.20 40.20 57.23 48.76 54.83 C 52.50 53.86 55.88 52.39 58.67 49.65 C 62.38 44.92 61.09 39.79 62.34 34.29 C 64.22 27.07 66.37 20.07 71.28 14.28 C 78.92 7.91 88.24 5.62 98.00 5.17 Z
         M 97.27 37.79 C 100.78 43.73 102.74 50.96 103.21 57.81 C 104.23 61.20 106.10 64.84 108.72 67.27 C 113.44 71.89 118.07 76.59 122.74 81.27 C 125.63 84.59 131.25 84.18 135.26 86.07 C 131.96 89.83 128.15 93.09 124.80 96.78 C 122.01 99.81 123.24 104.20 122.99 108.00 C 123.24 114.80 122.54 121.94 123.30 128.65 C 127.54 136.12 133.30 142.80 138.00 150.00 C 140.61 154.11 143.85 157.67 146.13 162.00 C 144.15 161.97 142.17 161.96 140.19 162.01 C 136.07 157.12 134.52 150.32 130.73 145.27 C 126.14 140.54 121.40 135.95 116.78 131.24 C 115.43 129.44 112.99 130.15 111.04 129.97 C 102.52 130.21 93.83 129.64 85.37 130.23 C 81.68 133.57 78.34 137.31 74.74 140.74 C 72.38 143.19 69.73 145.20 68.32 148.31 C 66.12 152.86 63.71 157.33 61.67 161.96 C 58.67 162.01 55.68 162.06 52.69 161.91 C 53.74 159.60 55.38 157.92 56.79 155.80 C 62.28 147.99 67.90 140.29 73.76 132.75 C 76.48 129.37 77.26 125.27 77.03 121.02 C 76.80 113.84 77.36 106.50 76.77 99.37 C 72.31 94.53 67.39 90.12 62.88 85.31 C 65.91 84.40 69.47 83.77 72.20 82.19 C 76.53 78.22 80.51 73.83 84.76 69.76 C 87.19 67.21 89.83 65.42 90.94 61.94 C 92.51 58.35 91.72 54.91 92.20 51.19 C 93.58 46.45 94.42 41.94 97.27 37.79 Z"
      stroke="black"
      stroke-width="8"
    />
  </symbol>

  <symbol id="builder" viewBox="0 0 200 200">
    <path
      d="M 89.54 7.67 C 93.44 8.39 96.15 11.01 99.93 10.70 C 103.22 10.66 106.17 8.21 109.46 7.67 C 114.22 6.81 119.26 7.20 124.03 7.83 C 133.18 9.13 140.53 17.15 141.41 26.30 C 141.77 31.51 142.21 37.30 138.49 41.48 C 134.90 45.93 130.03 47.51 124.71 48.93 C 124.28 55.09 123.99 61.26 123.74 67.43 C 133.60 68.21 143.48 68.81 153.34 69.62 C 159.72 70.09 165.76 75.44 166.28 81.94 C 166.55 86.15 166.79 91.09 165.10 95.04 C 162.84 99.64 158.47 103.10 153.23 103.36 C 144.66 103.92 136.06 104.15 127.48 104.66 C 132.14 123.24 136.67 141.86 141.55 160.38 C 147.39 161.12 153.22 161.88 159.06 162.65 C 161.58 162.94 163.78 163.51 165.52 165.48 C 168.88 168.68 168.46 172.78 168.47 177.04 C 168.33 182.10 167.25 186.87 163.19 190.22 C 159.98 193.14 156.04 192.49 152.04 192.55 C 145.03 192.64 138.01 192.52 131.00 192.67 C 103.29 193.16 75.67 192.71 47.98 192.54 C 44.88 192.47 41.15 192.94 38.23 191.78 C 34.70 190.10 32.06 186.52 31.24 182.72 C 30.37 178.90 30.35 174.85 30.73 170.97 C 31.20 166.86 34.81 163.08 39.01 162.79 C 45.17 161.92 51.36 161.20 57.52 160.32 C 62.27 141.79 66.89 123.23 71.52 104.66 C 62.95 104.15 54.34 103.92 45.77 103.36 C 39.25 103.08 33.49 97.41 32.80 90.99 C 32.44 87.71 32.41 84.28 32.85 81.01 C 33.82 74.93 39.58 70.06 45.65 69.62 C 55.51 68.81 65.40 68.21 75.26 67.43 C 75.01 61.26 74.72 55.09 74.29 48.93 C 67.31 47.21 60.62 44.33 58.05 37.05 C 56.74 30.92 57.09 23.75 60.15 18.16 C 63.26 13.03 68.13 9.06 74.14 7.98 C 79.16 7.19 84.50 6.79 89.54 7.67 Z"
      stroke="black"
      stroke-width="8"
    />
  </symbol>

  <symbol id="pig" viewBox="0 0 200 200">
    <path
      d="M 53.96 44.99 C 60.29 45.03 66.63 44.93 72.96 45.04 C 83.13 45.66 93.10 47.78 102.69 51.22 C 115.63 55.24 128.28 60.01 140.71 65.40 C 142.29 63.19 143.18 60.68 146.16 60.20 C 150.71 59.26 156.45 59.02 160.66 61.28 C 164.12 63.15 164.16 67.61 164.52 71.04 C 164.90 74.26 164.17 77.72 167.38 79.67 C 174.08 84.05 184.78 81.49 192.12 83.98 C 198.55 90.21 199.53 101.08 198.24 109.46 C 196.53 113.85 193.45 117.89 190.57 121.58 C 185.55 126.79 177.46 125.27 170.95 125.41 C 165.75 124.90 160.96 127.89 157.51 131.51 C 149.48 139.64 140.60 146.85 130.77 152.69 C 126.15 155.01 120.07 154.95 114.98 155.02 C 111.42 154.89 106.95 155.01 103.75 153.28 C 100.93 149.59 101.50 143.01 101.01 138.56 C 91.47 138.94 81.55 140.89 72.27 137.54 C 68.78 136.23 65.27 136.21 61.61 136.27 C 61.55 140.06 61.42 144.04 60.61 147.74 C 60.29 149.46 58.96 151.15 57.15 151.38 C 52.07 151.99 47.09 152.59 41.98 151.89 C 39.39 151.57 36.04 151.69 33.81 150.22 C 32.50 146.98 32.56 143.40 30.79 140.23 C 27.69 134.47 22.55 129.62 18.40 124.58 C 12.06 117.76 5.99 110.18 2.85 101.28 C 1.36 95.14 1.27 87.46 2.37 81.25 C 3.86 73.60 8.88 69.32 13.57 63.55 C 19.85 56.39 27.83 52.18 36.52 48.64 C 42.10 46.57 47.96 44.92 53.96 44.99 Z"
      stroke="black"
      stroke-width="8"
    />
  </symbol>

  <symbol id="mayor" viewBox="0 0 200 200">
    <path
      d="M 100.05 6.34 C 104.42 6.08 108.05 7.58 112.19 8.82 C 116.32 10.16 119.01 13.03 121.96 16.04 C 127.40 21.65 130.35 29.58 131.87 37.12 C 132.69 39.96 132.85 42.75 135.90 44.09 C 143.27 47.67 150.39 51.70 157.76 55.29 C 162.20 57.50 165.93 61.21 168.92 65.11 C 172.35 69.89 172.17 76.78 168.31 81.27 C 165.75 84.23 162.62 87.43 158.93 88.90 C 154.39 90.71 149.69 91.72 145.05 93.00 C 143.14 93.42 142.89 96.39 144.47 97.36 C 145.68 98.23 147.01 98.97 148.28 99.75 C 155.06 103.71 160.72 110.22 166.16 115.85 C 174.25 125.54 181.89 134.98 187.73 146.26 C 192.74 157.14 195.37 168.83 192.63 180.72 C 191.61 185.31 188.17 188.83 184.56 191.60 C 181.32 193.96 177.84 193.73 174.02 193.80 C 158.68 193.75 143.32 193.82 127.97 193.77 C 123.28 193.85 118.60 192.02 115.13 188.88 C 108.97 182.51 106.95 174.11 101.96 167.00 C 100.84 165.24 97.99 164.71 96.89 166.78 C 91.97 173.71 90.04 181.70 84.15 188.16 C 80.20 192.23 74.57 193.84 69.01 193.79 C 54.33 193.79 39.64 193.76 24.96 193.80 C 21.16 193.76 16.99 193.58 13.88 191.12 C 10.55 188.43 7.28 185.14 6.25 180.83 C 4.91 175.55 4.71 169.88 5.40 164.49 C 6.80 156.57 9.27 148.41 13.54 141.54 C 16.73 136.39 19.86 131.39 23.70 126.70 C 27.72 121.82 31.08 116.94 35.54 112.54 C 39.86 108.27 43.54 104.01 48.71 100.72 C 51.62 98.59 54.81 97.92 55.65 93.94 C 50.02 91.15 43.08 90.68 37.52 87.50 C 34.91 85.89 32.69 83.59 30.67 81.31 C 26.49 76.71 26.47 69.12 30.29 64.31 C 33.20 60.62 36.84 57.19 41.07 55.07 C 48.41 51.45 55.57 47.51 62.91 43.89 C 66.19 42.42 66.28 39.13 67.13 36.08 C 68.88 27.39 72.59 19.27 79.36 13.35 C 84.81 7.66 92.56 6.59 100.05 6.34 Z"
      stroke="black"
      stroke-width="8"
    />
    <path
      d="M 84.46 74.02 C 86.53 74.32 88.52 74.85 90.53 75.42 C 93.48 76.28 96.95 75.88 100.01 75.83 C 103.63 75.67 107.31 76.17 110.91 75.85 C 113.60 75.40 116.19 74.39 118.86 73.81 C 119.62 82.43 119.32 90.99 117.35 99.43 C 116.37 101.87 115.02 104.40 113.61 106.62 C 110.64 110.55 106.03 113.51 101.86 116.04 C 97.70 113.89 93.65 110.99 90.51 107.51 C 88.63 104.93 86.74 101.39 85.82 98.33 C 84.30 90.34 83.39 82.13 84.46 74.02 Z"
      fill="currentColor"
    />
  </symbol>

  <symbol id="wagon" viewBox="0 0 200 200">
    <path
      d="M 17.93 54.99 C 71.26 55.09 124.71 54.89 178.02 55.09 C 181.04 55.27 185.64 54.75 188.02 56.95 C 189.09 59.34 188.99 62.40 189.06 64.97 C 188.97 77.99 188.98 91.01 189.06 104.04 C 188.99 108.11 189.04 111.86 185.92 114.92 C 182.19 118.99 175.32 117.71 170.31 118.04 C 169.71 122.64 169.26 126.92 167.16 131.13 C 163.03 139.62 154.35 145.51 144.88 145.95 C 135.46 146.50 126.32 141.66 121.29 133.72 C 118.13 128.91 117.34 123.65 116.69 118.07 C 105.56 117.94 94.43 117.94 83.31 118.07 C 82.71 122.65 82.26 126.92 80.15 131.13 C 76.04 139.62 67.34 145.51 57.88 145.95 C 48.46 146.50 39.32 141.65 34.29 133.72 C 31.13 128.92 30.35 123.66 29.69 118.08 C 25.88 118.03 21.98 118.22 18.21 117.70 C 13.64 116.79 10.20 112.67 10.16 108.00 C 9.78 94.68 10.17 81.33 9.94 68.00 C 9.98 65.21 9.75 62.17 10.48 59.46 C 12.04 56.40 14.43 54.85 17.93 54.99 Z"
      stroke="black"
      stroke-width="8"
    />
  </symbol>

  <symbol id="barn" viewBox="0 0 200 200">
    <path
      d="M 103.04 25.34 C 107.58 26.05 112.43 28.09 116.02 31.00 C 126.25 39.12 136.63 47.05 146.91 55.11 C 158.71 64.69 170.96 73.70 182.85 83.17 C 186.91 86.52 191.87 89.60 195.04 93.83 C 197.31 96.95 195.91 100.56 195.57 104.04 C 193.95 124.39 190.86 144.63 188.94 164.95 C 188.75 167.15 188.27 169.28 187.70 171.40 C 180.90 175.15 171.55 174.58 164.00 174.64 C 158.72 174.48 152.69 175.27 147.60 173.72 C 145.23 172.67 142.07 171.61 141.56 168.70 C 140.60 163.53 141.70 156.49 139.22 151.68 C 137.86 149.07 135.51 148.60 132.99 147.57 C 129.70 148.50 126.46 149.55 125.13 153.05 C 124.21 158.08 125.30 163.43 124.60 168.52 C 124.15 170.78 122.38 172.62 120.19 173.30 C 112.10 175.44 103.71 174.36 95.00 174.65 C 90.68 174.92 86.56 174.02 82.64 172.21 C 79.57 170.49 80.47 166.91 80.35 163.98 C 80.61 158.57 79.37 153.33 79.50 147.92 C 79.62 144.22 78.59 140.63 76.14 137.80 C 71.51 133.68 62.70 136.55 62.27 142.96 C 60.99 152.39 62.72 161.73 60.46 171.15 C 56.23 173.95 51.85 173.77 46.97 174.55 C 38.63 174.74 30.26 174.56 21.92 174.64 C 18.96 174.71 16.42 173.73 13.57 173.10 C 11.82 167.72 12.09 162.52 11.24 156.97 C 9.58 141.32 7.43 125.72 5.92 110.05 C 5.78 104.47 4.16 99.37 5.41 93.79 C 7.30 91.85 9.29 90.05 11.51 88.49 C 37.84 69.51 64.11 50.42 90.45 31.45 C 94.06 28.87 98.56 25.84 103.04 25.34 Z"
      stroke="black"
      stroke-width="8"
    />
  </symbol>

  <symbol id="shepherd" viewBox="0 0 200 200">
    <path
      d="M 31.47 3.58 C 34.85 3.02 38.24 2.75 41.19 4.80 C 44.52 7.00 45.56 10.82 46.55 14.45 C 48.52 22.52 50.86 30.46 52.38 38.65 C 53.16 42.10 53.89 46.12 55.91 49.10 C 58.10 52.32 64.16 52.89 66.25 49.26 C 68.12 46.19 68.87 42.20 69.76 38.75 C 70.96 33.60 72.86 28.77 74.84 23.83 C 77.29 17.68 82.03 12.18 87.91 9.09 C 95.55 6.28 104.42 5.18 111.93 9.00 C 116.58 11.40 121.48 14.12 124.19 18.80 C 127.95 25.22 130.94 32.22 132.47 39.52 C 133.34 43.14 133.89 47.17 135.57 50.51 C 137.24 53.53 141.30 55.28 144.28 56.75 C 151.40 59.91 158.34 62.97 165.80 65.21 C 171.98 67.13 179.24 69.49 184.15 73.87 C 187.76 77.08 189.12 82.46 186.80 86.81 C 183.72 92.20 178.81 95.47 173.76 98.77 C 166.35 103.64 159.40 109.10 153.17 115.41 C 155.43 125.22 159.81 134.26 162.13 144.02 C 165.12 155.52 169.04 166.66 173.25 177.76 C 174.46 181.15 175.94 184.25 175.14 187.94 C 174.44 191.66 171.65 195.73 167.71 196.44 C 159.94 197.68 151.60 197.12 143.81 196.47 C 137.56 195.94 131.26 196.63 125.03 196.12 C 120.55 195.71 117.01 193.03 114.82 189.21 C 111.17 182.83 109.51 175.32 106.20 168.75 C 104.98 166.27 103.01 164.74 100.99 162.94 C 95.67 166.94 94.62 172.44 92.12 178.19 C 89.99 183.07 88.08 189.43 84.07 193.07 C 79.83 196.91 74.29 196.28 69.00 196.30 C 59.25 195.96 49.71 197.72 39.97 197.00 C 36.40 196.71 32.05 196.93 28.80 195.29 C 26.03 192.98 26.62 188.53 27.55 185.47 C 29.65 178.93 32.54 171.79 33.58 164.85 C 35.01 155.56 33.03 145.35 31.74 136.06 C 29.39 121.68 26.20 107.42 24.16 92.98 C 23.42 88.26 21.95 83.71 21.18 78.99 C 19.89 71.34 19.02 63.30 17.17 55.75 C 14.31 45.39 12.64 34.75 12.19 24.01 C 12.25 19.91 12.58 14.69 15.56 11.56 C 19.73 7.00 25.51 4.71 31.47 3.58 Z"
      stroke="black"
      stroke-width="8"
    />
  </symbol>
</svg>
