<svg xmlns="http://www.w3.org/2000/svg">
  <symbol id="count" viewBox="0 0 200 200">
    <path
      d="M 100.92 5.99 C 105.18 6.76 109.65 8.29 113.22 10.78 C 120.03 16.65 121.88 24.29 124.68 32.36 C 125.39 34.21 126.24 37.37 128.83 36.84 C 131.67 35.53 134.16 33.07 137.15 31.93 C 139.01 31.42 141.20 31.90 143.10 32.04 C 143.91 38.37 138.62 45.17 137.30 51.12 C 137.79 55.27 140.78 59.65 142.64 63.36 C 144.37 67.62 145.60 72.36 145.31 76.98 C 145.34 81.30 144.69 85.82 146.19 89.84 C 147.76 94.36 148.47 98.88 150.95 103.04 C 154.85 111.60 156.92 121.22 157.58 130.57 C 158.40 137.48 161.45 144.10 161.80 151.02 C 162.03 154.88 160.41 158.11 157.01 160.00 C 152.63 162.42 148.78 165.58 144.49 168.13 C 147.35 171.59 149.24 176.41 152.80 179.12 C 156.70 179.93 160.84 179.48 164.80 180.35 C 165.17 185.64 161.51 188.89 157.36 191.38 C 148.99 194.22 139.94 193.00 131.00 193.25 C 125.80 193.09 119.32 194.08 114.71 191.33 C 111.72 188.73 109.84 184.46 107.88 181.07 C 105.94 177.83 102.76 175.25 99.98 172.76 C 93.34 177.64 91.32 185.02 85.81 190.82 C 83.66 192.90 80.94 193.36 78.05 193.28 C 68.68 193.19 59.31 193.33 49.95 193.20 C 43.02 193.10 36.79 188.43 34.38 182.01 C 38.29 178.70 42.04 180.11 46.65 179.67 C 50.83 176.82 52.01 171.65 55.75 167.95 C 52.78 166.45 50.09 164.56 47.34 162.69 C 44.38 160.64 40.86 159.25 38.72 156.26 C 36.93 154.15 37.38 150.66 38.01 148.17 C 39.84 142.43 41.47 136.55 42.42 130.57 C 43.08 121.22 45.15 111.60 49.05 103.04 C 51.53 98.87 52.26 94.35 53.80 89.83 C 55.27 85.71 54.65 81.37 54.68 76.98 C 54.40 72.36 55.63 67.62 57.36 63.36 C 59.22 59.65 62.20 55.27 62.70 51.12 C 61.38 45.16 56.04 38.32 56.93 31.99 C 62.58 30.80 66.06 33.77 70.51 36.52 C 72.71 37.74 74.19 35.71 74.70 33.77 C 76.97 25.25 79.68 16.61 86.80 10.79 C 90.77 8.07 96.02 5.64 100.92 5.99 Z"
      stroke="black"
      stroke-width="6"
    />
  </symbol>
  <symbol id="fairy" viewBox="0 0 200 200">
    <path
      d="M 101.62 59.60 C 106.19 61.16 108.27 66.30 109.21 70.66 C 112.08 83.51 114.58 96.46 117.29 109.35 C 117.75 110.83 117.95 113.03 119.17 114.07 C 123.69 114.78 128.11 114.25 132.60 115.55 C 136.63 116.54 140.22 119.01 142.37 122.58 C 144.17 127.20 142.57 131.78 139.06 135.05 C 134.67 139.79 129.34 140.10 123.92 142.87 C 123.40 144.83 125.42 147.21 126.13 148.99 C 130.93 158.79 136.25 168.31 140.80 178.23 C 142.42 181.71 143.29 185.63 142.23 189.41 C 141.02 191.55 138.86 193.48 136.52 194.26 C 133.12 194.95 129.45 194.60 125.99 194.65 C 110.33 194.60 94.67 194.60 79.00 194.65 C 75.55 194.61 71.88 194.96 68.49 194.24 C 65.56 193.22 62.26 190.36 62.39 186.99 C 61.41 178.16 66.68 170.92 69.60 162.85 C 71.84 156.59 74.55 150.47 76.58 144.15 C 73.36 141.62 68.71 141.04 65.15 138.93 C 60.81 136.33 56.65 132.59 57.26 127.01 C 56.95 122.79 60.59 119.90 63.68 117.73 C 69.76 113.75 78.30 116.88 84.06 114.14 C 85.52 109.52 85.45 105.15 86.23 100.32 C 87.19 94.29 87.81 88.21 88.76 82.17 C 89.63 76.65 89.40 71.49 91.10 66.16 C 92.73 61.74 96.65 58.35 101.62 59.60 Z"
      stroke="black"
      stroke-width="8"
    />
  </symbol>
  <symbol id="dragon" viewBox="0 50 200 100">
    <path
      d="M 52.26 54.72 C 55.03 55.76 55.98 58.43 57.53 60.69 C 60.37 61.28 62.77 60.65 64.87 63.11 C 68.41 65.86 65.88 69.41 68.28 72.70 C 70.09 73.45 72.00 74.05 73.89 74.52 C 78.15 68.91 83.21 64.10 88.48 59.45 C 90.94 57.25 92.98 54.81 96.47 54.39 C 100.30 53.96 104.95 52.84 107.41 56.67 C 108.67 60.39 108.55 64.76 109.17 68.63 C 112.76 71.59 116.89 73.39 120.20 76.79 C 122.32 78.97 125.00 80.71 126.81 83.14 C 129.55 87.25 132.18 91.32 134.26 95.81 C 138.45 95.89 142.08 95.73 146.04 97.36 C 147.44 96.61 148.67 95.60 150.10 94.89 C 152.80 94.54 155.58 94.86 158.29 94.59 C 158.82 92.75 159.01 90.62 159.93 88.94 C 162.02 85.81 165.33 83.63 169.06 83.04 C 174.96 81.96 181.70 80.42 187.71 81.16 C 190.02 83.10 193.59 85.59 193.00 89.00 C 193.12 95.28 190.91 100.72 189.93 106.80 C 188.49 110.72 185.38 111.93 181.50 112.50 C 175.67 120.65 169.60 128.09 160.08 132.07 C 152.15 135.84 143.88 137.26 135.13 136.90 C 132.73 138.80 131.37 141.94 128.58 143.59 C 123.38 147.16 116.71 145.92 110.81 145.50 C 107.25 145.42 103.84 144.56 100.42 143.61 C 98.24 142.12 96.89 139.50 95.17 137.84 C 92.42 136.19 89.30 134.19 86.07 133.82 C 81.61 135.62 82.42 140.50 78.67 143.68 C 76.21 146.09 73.26 145.99 70.05 145.98 C 62.09 145.77 54.10 146.18 46.15 145.85 C 43.07 145.61 41.44 144.81 39.59 142.33 C 36.89 136.43 37.44 130.67 38.43 124.44 C 40.10 121.78 43.05 119.97 44.16 116.91 C 44.50 114.61 44.41 112.24 44.34 109.93 C 44.37 105.19 40.59 100.61 36.58 98.44 C 30.14 94.86 23.49 97.61 17.26 93.77 C 11.89 91.46 8.42 86.94 6.17 81.69 C 5.74 77.88 5.71 72.57 8.67 69.69 C 11.75 66.15 16.04 64.19 20.65 63.59 C 25.34 62.22 29.92 63.08 34.67 62.60 C 37.61 61.99 39.23 58.30 41.37 56.36 C 44.12 53.34 48.69 53.51 52.26 54.72 Z"
      stroke="black"
      stroke-width="4"
    />
  </symbol>
  <symbol id="mage" viewBox="0 0 200 200">
    <path
      d="M 107.09 3.88 C 113.98 12.61 115.98 22.37 117.98 33.00 C 121.13 45.09 123.19 57.27 124.63 69.67 C 125.53 76.92 126.07 84.32 128.85 91.17 C 129.78 93.49 131.27 95.38 133.67 96.27 C 138.06 98.06 143.81 98.56 147.73 101.26 C 151.14 103.63 152.21 108.01 151.28 111.91 C 150.42 114.20 148.55 116.17 146.68 117.69 C 143.61 120.17 139.56 120.70 136.12 122.46 C 135.19 124.23 136.14 127.05 136.11 129.03 C 136.74 134.44 134.30 138.67 134.20 144.01 C 134.01 149.28 136.16 154.18 137.69 159.12 C 139.83 165.63 141.02 172.32 143.38 178.75 C 144.59 182.29 146.27 186.26 146.32 190.02 C 146.28 192.19 145.84 194.65 144.07 196.12 C 141.87 198.00 138.79 197.94 136.06 198.05 C 112.02 197.97 87.98 197.98 63.94 198.04 C 60.61 197.97 56.50 197.76 54.75 194.40 C 52.79 189.50 54.92 184.32 56.53 179.64 C 59.00 173.07 60.33 166.23 62.49 159.56 C 63.92 154.88 65.91 149.92 66.02 145.00 C 66.07 141.08 64.88 137.68 64.32 133.90 C 63.77 129.96 64.38 126.37 64.79 122.48 C 60.71 121.05 56.15 120.11 52.90 117.11 C 51.11 115.50 49.17 113.36 48.63 110.95 C 48.06 107.37 49.41 103.54 52.37 101.37 C 57.17 97.86 64.22 98.25 68.90 94.91 C 72.23 91.66 73.16 85.73 74.10 81.34 C 76.30 66.11 77.42 51.31 81.46 36.30 C 84.15 24.86 85.35 14.33 92.59 4.55 C 95.65 -0.21 103.62 -0.53 107.09 3.88 Z"
      stroke="black"
      stroke-width="8"
    />
  </symbol>
  <symbol id="witch" viewBox="0 0 200 200">
    <path
    d="M 107.62 45.32 C 110.80 51.29 113.01 57.88 114.78 64.40 C 116.55 70.81 118.53 77.07 119.56 83.66 C 120.62 90.13 122.35 96.40 124.00 102.74 C 125.24 107.46 125.26 112.59 126.91 117.17 C 127.82 119.62 129.97 120.85 132.45 121.24 C 139.45 122.40 146.19 121.55 152.48 125.55 C 156.63 128.16 158.11 132.54 158.79 137.16 C 159.62 142.23 159.05 147.58 155.67 151.65 C 153.06 154.35 148.68 155.47 145.04 155.65 C 139.80 155.99 134.58 156.42 129.43 157.50 C 132.66 167.01 140.78 173.84 144.46 182.59 C 146.01 186.39 147.10 191.53 145.41 195.42 C 144.43 197.42 142.42 197.83 140.42 198.19 C 128.48 199.77 116.97 199.13 105.00 199.32 C 100.33 199.37 95.67 199.39 91.00 199.27 C 80.29 198.95 69.63 199.72 58.91 199.18 C 56.17 198.94 53.30 198.77 51.50 196.40 C 49.65 193.52 50.42 189.54 51.42 186.49 C 55.18 175.56 64.28 168.36 68.36 157.59 C 62.02 156.08 55.61 155.85 49.14 155.46 C 43.07 155.06 38.36 149.39 36.88 143.86 C 35.69 138.53 37.67 131.41 41.48 127.46 C 45.35 123.72 51.97 122.60 57.12 122.11 C 60.37 121.67 64.30 121.82 67.25 120.31 C 69.45 116.90 70.24 112.47 71.61 108.66 C 74.27 100.87 76.55 93.03 77.92 84.90 C 79.23 76.31 81.90 68.43 84.17 60.00 C 85.88 54.39 87.87 48.17 91.51 43.50 C 96.03 38.55 104.30 39.56 107.62 45.32 Z"
      stroke="black"
      stroke-width="8"
    />
  </symbol>
  <symbol id="bigtop" viewBox="0 0 200 200">
    <path 
      d="M194.7,165.8c0-0.1,0-0.1,0-0.2c0-0.1,0-0.2,0-0.3c0-0.1,0-0.2,0-0.2c0-0.1,0-0.2,0-0.2c0-0.1,0-0.2,0-0.3 c0-0.1,0-0.1,0-0.2c0-0.1,0-0.2,0-0.3c0-0.1,0-0.1,0-0.2c0-0.1,0-0.2,0-0.3c0-0.1,0-0.1,0-0.2c0-0.1,0-0.2-0.1-0.3 c0-0.1,0-0.1,0-0.2c0-0.1,0-0.2-0.1-0.3c0-0.1,0-0.2-0.1-0.2c0-0.1,0-0.2-0.1-0.3c0-0.1,0-0.2-0.1-0.2c0-0.1-0.1-0.2-0.1-0.3 c0-0.1-0.1-0.2-0.1-0.2c0-0.1-0.1-0.2-0.1-0.2c0-0.1-0.1-0.2-0.1-0.2c0-0.1-0.1-0.2-0.1-0.3c0-0.1-0.1-0.1-0.1-0.2 c0-0.1-0.1-0.2-0.1-0.3c0-0.1,0-0.1-0.1-0.2c-0.1-0.1-0.1-0.2-0.2-0.3c0,0,0-0.1,0-0.1c-0.1-0.2-0.2-0.5-0.3-0.7c0,0,0-0.1,0-0.1 c0,0,0-0.1-0.1-0.1c-0.2-0.4-0.4-0.7-0.6-1.1c0-0.1-0.1-0.1-0.1-0.2c-0.1-0.2-0.2-0.4-0.3-0.6c-0.2-0.4-0.5-0.9-0.7-1.3 c0,0,0-0.1,0-0.1c-1.2-2.3-2.3-4.6-3.3-6.9c-0.1-0.2-0.2-0.4-0.3-0.6c-0.1-0.2-0.2-0.5-0.3-0.7c-1.2-2.7-2.4-5.5-3.5-8.3 c-0.1-0.3-0.2-0.5-0.3-0.8c-0.5-1.2-1-2.5-1.5-3.7c-0.6-1.4-1.1-2.7-1.7-4.1c-0.1-0.2-0.2-0.4-0.2-0.6c-0.4-1.1-0.9-2.2-1.3-3.4 c-0.1-0.2-0.2-0.4-0.2-0.7c-0.2-0.5-0.3-0.9-0.5-1.4c0-0.1-0.1-0.2-0.1-0.3c-0.3-1-0.7-2.1-1.1-3.1c-0.1-0.4-0.3-0.8-0.4-1.2 c-1.4-4.1-2.7-8.3-3.9-12.5c-0.1-0.3-0.1-0.5-0.2-0.8c-0.1-0.3-0.2-0.6-0.3-1c-0.1-0.4-0.2-0.8-0.3-1.3c0-0.2-0.1-0.3-0.1-0.5 c-0.1-0.5-0.2-0.9-0.4-1.4c0-0.1-0.1-0.3-0.1-0.4c-0.1-0.4-0.2-0.9-0.3-1.3c0-0.2-0.1-0.4-0.1-0.6c-0.1-0.4-0.2-0.7-0.3-1.1 c-0.1-0.4-0.2-0.8-0.3-1.2c0-0.2-0.1-0.3-0.1-0.5c-0.3-1.3-0.5-2.6-0.8-3.8c0.7-0.3,1.5-0.6,2.2-0.9c0.1-0.1,0.2-0.1,0.4-0.2 c0.2-0.1,0.4-0.2,0.6-0.3c0.2-0.1,0.5-0.2,0.7-0.3c0.1,0,0.2-0.1,0.3-0.1c0.3-0.1,0.5-0.2,0.8-0.4c0.1,0,0.2-0.1,0.3-0.1 c0.2-0.1,0.5-0.2,0.7-0.3c0.1-0.1,0.3-0.1,0.4-0.2c0.1-0.1,0.3-0.1,0.4-0.2c0.4-0.2,0.9-0.4,1.3-0.7c0.1-0.1,0.3-0.2,0.4-0.2 c0.1,0,0.2-0.1,0.2-0.1c0.8-0.4,1.6-0.9,2.4-1.4c0.7-0.4,1.3-0.9,1.9-1.5c0,0,0,0,0,0c0,0,0,0,0.1-0.1c0.3-0.3,0.6-0.5,0.8-0.8 c0,0,0,0,0,0c0.1-0.1,0.2-0.3,0.3-0.4c0,0,0.1-0.1,0.1-0.1c0.1-0.1,0.2-0.2,0.2-0.3c0-0.1,0.1-0.1,0.1-0.2c0.1-0.1,0.1-0.2,0.2-0.3 c0.1-0.2,0.2-0.3,0.3-0.5c0-0.1,0.1-0.1,0.1-0.2c0.1-0.1,0.1-0.2,0.2-0.3c0-0.1,0.1-0.1,0.1-0.2c0.1-0.1,0.1-0.2,0.2-0.3 c0-0.1,0.1-0.1,0.1-0.2c0-0.1,0.1-0.2,0.1-0.3c0.2-0.5,0.3-1,0.4-1.5c0-0.1,0-0.1,0-0.2c0,0,0-0.1,0-0.1c0.1-0.4,0.1-0.9,0.1-1.3 c0-0.1,0-0.2,0-0.3c0,0,0-0.1,0-0.1c0-0.1,0-0.2,0-0.3c0-0.1,0-0.1,0-0.2c0-0.1,0-0.2,0-0.3c-0.1-0.9-0.4-1.8-0.8-2.6c0,0,0,0,0,0 c-0.5-1-1.1-2-1.8-2.9c0,0,0,0,0,0c0-0.1-0.1-0.1-0.1-0.2c-0.7-0.8-1.4-1.6-2.2-2.4c-0.5-0.5-1-0.9-1.6-1.4 c-0.1-0.1-0.1-0.1-0.2-0.2c-0.1,0-0.1-0.1-0.2-0.1c-0.1-0.1-0.3-0.2-0.4-0.3c-0.7-0.4-1.5-0.9-2.2-1.4c-4.9-3.1-9.8-6.2-14.7-9.3 c-0.5-0.3-1-0.7-1.5-1c-0.2-0.1-0.3-0.2-0.5-0.3c-4.9-3.3-9.9-6.6-14.7-9.9c-5.7-4-11.4-8-17-12c-5.8-4.2-11.5-8.3-17.2-12.5 c0,0-0.1-0.1-0.1-0.1c-0.2-0.2-0.4-0.3-0.6-0.5c-0.1-0.1-0.3-0.2-0.4-0.3c-0.1-0.1-0.2-0.2-0.3-0.2c-0.2-0.2-0.4-0.3-0.5-0.5 c-0.1-0.1-0.1-0.1-0.2-0.2c-0.2-0.2-0.4-0.4-0.5-0.6c-0.1-0.1-0.2-0.2-0.3-0.3c-0.1-0.1-0.3-0.3-0.4-0.4c-0.1-0.2-0.3-0.3-0.4-0.5 c-0.1-0.1-0.1-0.2-0.2-0.3c-0.2-0.2-0.3-0.4-0.5-0.6c-0.1-0.1-0.1-0.1-0.2-0.2c-0.1-0.1-0.2-0.3-0.3-0.4c-0.1-0.2-0.2-0.4-0.4-0.5 c-0.4-0.7-0.8-1.4-1.2-2c-0.1-0.1-0.1-0.2-0.2-0.3c-0.1-0.2-0.2-0.4-0.3-0.6c-0.4-0.7-0.7-1.3-1.1-2c-0.1-0.2-0.2-0.4-0.3-0.6 c0-0.1-0.1-0.2-0.1-0.2c-0.5-0.9-1.1-1.8-1.6-2.7c0,0,0,0,0,0c0,0,0,0,0,0c-0.1,0-0.2,0-0.3,0c-0.1,0-0.2,0-0.3,0c0,0,0,0,0,0 c0,0,0,0,0,0c-0.6,0.9-1.1,1.8-1.6,2.7c0,0.1-0.1,0.2-0.1,0.2c-0.1,0.2-0.2,0.4-0.3,0.6c-0.4,0.7-0.7,1.3-1.1,2 c-0.1,0.2-0.2,0.4-0.3,0.6c-0.1,0.1-0.1,0.2-0.2,0.3c-0.4,0.7-0.8,1.4-1.2,2c-0.1,0.2-0.2,0.4-0.4,0.5c-0.1,0.1-0.2,0.3-0.3,0.4 c-0.1,0.1-0.1,0.1-0.2,0.2c-0.2,0.2-0.3,0.4-0.5,0.6c-0.1,0.1-0.1,0.2-0.2,0.3c-0.1,0.2-0.3,0.4-0.4,0.5c-0.1,0.2-0.3,0.3-0.4,0.4 c-0.1,0.1-0.2,0.2-0.3,0.3c-0.2,0.2-0.4,0.4-0.5,0.6c-0.1,0.1-0.1,0.1-0.2,0.2c-0.2,0.2-0.4,0.3-0.5,0.5c-0.1,0.1-0.2,0.2-0.3,0.2 c-0.1,0.1-0.3,0.2-0.4,0.3c-0.2,0.2-0.4,0.3-0.6,0.5c0,0-0.1,0.1-0.1,0.1c-5.7,4.2-11.5,8.4-17.2,12.5c-5.6,4.1-11.3,8.1-17,12 c-4.9,3.4-9.8,6.7-14.7,9.9c-0.2,0.1-0.3,0.2-0.5,0.3c-0.5,0.3-1,0.7-1.5,1c-4.8,3.2-9.7,6.3-14.7,9.3c-0.7,0.5-1.5,0.9-2.2,1.3 c-0.1,0.1-0.3,0.2-0.4,0.3c-0.1,0-0.1,0.1-0.2,0.1c-0.1,0.1-0.1,0.1-0.2,0.2c-0.6,0.4-1.1,0.9-1.6,1.4c-0.8,0.7-1.5,1.5-2.2,2.4 c0,0.1-0.1,0.1-0.1,0.2c0,0,0,0,0,0c-0.7,0.9-1.3,1.9-1.8,2.9c0,0,0,0,0,0c-0.4,0.8-0.6,1.7-0.8,2.6c0,0.1,0,0.2,0,0.3 c0,0.1,0,0.1,0,0.2c0,0.1,0,0.2,0,0.3c0,0,0,0.1,0,0.1c0,0.1,0,0.2,0,0.3c0,0.4,0,0.9,0.1,1.3c0,0.1,0,0.1,0,0.2c0,0.1,0,0.1,0,0.2 c0.1,0.5,0.2,1,0.4,1.5c0,0.1,0.1,0.2,0.1,0.3c0,0.1,0,0.1,0.1,0.2c0,0.1,0.1,0.2,0.2,0.3c0,0.1,0.1,0.1,0.1,0.2 c0.1,0.1,0.1,0.2,0.2,0.3c0,0.1,0.1,0.1,0.1,0.2c0.1,0.2,0.2,0.3,0.3,0.5c0.1,0.1,0.1,0.2,0.2,0.3c0,0.1,0.1,0.1,0.1,0.2 c0.1,0.1,0.2,0.2,0.2,0.3c0,0,0.1,0.1,0.1,0.1c0.1,0.1,0.2,0.3,0.3,0.4c0,0,0,0,0,0c0.3,0.3,0.5,0.6,0.8,0.8c0,0,0,0,0.1,0.1 c0,0,0,0,0,0c0.6,0.6,1.2,1,1.9,1.5c0.8,0.5,1.6,1,2.4,1.4c0.1,0,0.2,0.1,0.2,0.1c0.1,0.1,0.3,0.2,0.4,0.2c0.4,0.2,0.9,0.5,1.3,0.7 c0.1,0.1,0.3,0.1,0.4,0.2c0.1,0.1,0.3,0.1,0.4,0.2c0.2,0.1,0.5,0.2,0.7,0.3c0.1,0,0.2,0.1,0.3,0.1c0.3,0.1,0.5,0.2,0.8,0.4 c0.1,0,0.2,0.1,0.3,0.1c0.2,0.1,0.5,0.2,0.7,0.3c0.2,0.1,0.4,0.2,0.6,0.3c0.1,0.1,0.2,0.1,0.4,0.2c0.7,0.3,1.4,0.6,2.2,0.9 c-0.2,1.3-0.5,2.6-0.8,3.8c0,0.2-0.1,0.3-0.1,0.5c-0.1,0.4-0.2,0.8-0.3,1.2c-0.1,0.4-0.2,0.7-0.3,1.1c0,0.2-0.1,0.4-0.1,0.6 c-0.1,0.4-0.2,0.9-0.3,1.3c0,0.1-0.1,0.3-0.1,0.4c-0.1,0.5-0.2,0.9-0.4,1.4c0,0.2-0.1,0.3-0.1,0.5c-0.1,0.4-0.2,0.8-0.3,1.3 c-0.1,0.3-0.2,0.6-0.3,0.9c-0.1,0.3-0.1,0.5-0.2,0.8c-1.2,4.2-2.5,8.4-3.9,12.5c-0.1,0.4-0.3,0.8-0.4,1.2c-0.4,1-0.7,2.1-1.1,3.1 c0,0.1-0.1,0.2-0.1,0.3c-0.2,0.5-0.3,0.9-0.5,1.4c-0.1,0.2-0.2,0.4-0.2,0.7c-0.4,1.1-0.8,2.3-1.3,3.4c-0.1,0.2-0.2,0.4-0.2,0.6 c-0.6,1.4-1.1,2.7-1.7,4.1c-0.5,1.2-1,2.5-1.5,3.7c-0.1,0.3-0.2,0.5-0.3,0.8c-1.1,2.8-2.3,5.5-3.5,8.3c-0.1,0.2-0.2,0.5-0.3,0.7 c-0.1,0.2-0.2,0.4-0.3,0.6c-1.1,2.3-2.2,4.6-3.3,6.9c0,0,0,0.1,0,0.1c-0.2,0.4-0.5,0.9-0.7,1.3c-0.1,0.2-0.2,0.4-0.3,0.6 c0,0.1-0.1,0.1-0.1,0.2c-0.2,0.4-0.4,0.7-0.6,1.1c0,0,0,0.1-0.1,0.1c0,0,0,0.1,0,0.1c-0.1,0.2-0.2,0.5-0.3,0.7c0,0,0,0.1,0,0.1 c-0.1,0.1-0.1,0.2-0.2,0.3c0,0.1,0,0.1-0.1,0.2c0,0.1-0.1,0.2-0.1,0.3c0,0.1-0.1,0.1-0.1,0.2c0,0.1-0.1,0.2-0.1,0.3 c0,0.1-0.1,0.2-0.1,0.2c0,0.1-0.1,0.2-0.1,0.2c0,0.1-0.1,0.2-0.1,0.2c0,0.1-0.1,0.2-0.1,0.3c0,0.1,0,0.2-0.1,0.2 c0,0.1,0,0.2-0.1,0.3c0,0.1,0,0.2-0.1,0.2c0,0.1,0,0.2-0.1,0.3c0,0.1,0,0.1,0,0.2c0,0.1,0,0.2-0.1,0.3c0,0.1,0,0.1,0,0.2 c0,0.1,0,0.2,0,0.3c0,0.1,0,0.1,0,0.2c0,0.1,0,0.2,0,0.3c0,0.1,0,0.1,0,0.2c0,0.1,0,0.2,0,0.3c0,0.1,0,0.2,0,0.2c0,0.1,0,0.2,0,0.2 c0,0.1,0,0.2,0,0.3c0,0.1,0,0.1,0,0.2c0,0.1,0,0.3,0,0.4c0,0,0,0,0,0.1c0,0.1,0,0.2,0,0.3c0,0.2,0.1,0.4,0.2,0.7c0,0,0,0.1,0,0.1 c0,0,0,0.1,0,0.1c0,0.1,0.1,0.1,0.1,0.2c0,0,0,0,0,0c0.2,0.5,0.5,1,0.8,1.5c0,0,0,0,0,0c0,0.1,0.1,0.1,0.1,0.2c0,0,0,0,0,0 c0,0,0.1,0.1,0.1,0.1c0,0,0,0.1,0.1,0.1c0,0,0.1,0.1,0.1,0.1c0,0,0.1,0.1,0.1,0.1c0,0,0.1,0.1,0.1,0.1c0,0,0.1,0.1,0.1,0.1 c0.1,0.1,0.3,0.3,0.4,0.4c0.2,0.2,0.3,0.4,0.5,0.6c0,0,0.1,0.1,0.1,0.1c0.1,0.2,0.3,0.3,0.4,0.5c0.1,0.1,0.1,0.1,0.2,0.2 c0.1,0.1,0.2,0.2,0.3,0.4c0.1,0.1,0.1,0.1,0.2,0.2c0.1,0.1,0.2,0.2,0.3,0.3c0.1,0.1,0.1,0.1,0.2,0.2c0.1,0.1,0.2,0.2,0.3,0.3 c0.1,0.1,0.2,0.1,0.2,0.2c0.1,0.1,0.2,0.2,0.3,0.3c0.1,0.1,0.1,0.1,0.2,0.2c0.2,0.1,0.3,0.3,0.5,0.4c0,0,0.1,0.1,0.1,0.1 c0.2,0.2,0.4,0.3,0.6,0.5c0,0,0,0,0.1,0c0.2,0.1,0.4,0.3,0.5,0.4c0,0,0.1,0.1,0.1,0.1c0.2,0.1,0.3,0.2,0.5,0.3 c0.1,0,0.1,0.1,0.2,0.1c0.2,0.1,0.3,0.2,0.5,0.3c0.1,0,0.1,0.1,0.2,0.1c0.1,0.1,0.3,0.2,0.4,0.3c0.1,0,0.2,0.1,0.2,0.1 c0.1,0.1,0.2,0.1,0.4,0.2c0.1,0.1,0.2,0.1,0.3,0.2c0.1,0,0.1,0.1,0.2,0.1c0.6,0.4,1.2,0.7,1.8,1c0.1,0,0.2,0.1,0.3,0.1 c2,1,4,2,6,2.8c0.1,0,0.1,0.1,0.2,0.1c0.2,0.1,0.4,0.2,0.7,0.3c2.5,1,5.1,1.9,7.7,2.8c1.6,0.6,3.2,1.1,4.9,1.6 c0.4,0.1,0.8,0.3,1.2,0.4c0.5,0.1,0.9,0.3,1.4,0.4c1.6,0.5,3.3,0.9,4.9,1.3c1.5,0.4,2.9,0.7,4.4,1c0.1,0,0.2,0,0.3,0.1 c0.7,0.2,1.5,0.3,2.2,0.5c0.3,0.1,0.7,0.1,1,0.2c0.5,0.1,0.9,0.2,1.4,0.3c0.6,0.1,1.1,0.2,1.7,0.3c0.3,0.1,0.7,0.1,1,0.2 c0.6,0.1,1.2,0.2,1.8,0.3c0.4,0.1,0.9,0.1,1.3,0.2c0.4,0.1,0.7,0.1,1.1,0.2c0.7,0.1,1.4,0.2,2.1,0.3c0.2,0,0.4,0.1,0.6,0.1 c4.5,0.6,9,1,13.6,1.4c0.1,0,0.1,0,0.2,0c0.7,0.1,1.5,0.1,2.2,0.1c1.1,0.1,2.2,0.1,3.3,0.2c1.8,0.1,3.7,0.1,5.5,0.2 c3,0.1,6,0.1,9.1,0c0.9,0,1.9,0,2.8,0c0.9,0,1.9,0,2.8,0c3,0,6,0,9.1,0c1.8,0,3.7-0.1,5.5-0.2c1.1-0.1,2.2-0.1,3.3-0.2 c0.7,0,1.5-0.1,2.2-0.1c0.1,0,0.1,0,0.2,0c4.5-0.3,9.1-0.8,13.6-1.4c0.2,0,0.4-0.1,0.6-0.1c0.7-0.1,1.4-0.2,2.1-0.3 c0.4-0.1,0.7-0.1,1.1-0.2c0.4-0.1,0.9-0.1,1.3-0.2c0.6-0.1 ,1.2-0.2,1.8-0.3c0.3-0.1,0.7-0.1,1-0.2c0.6-0.1,1.1-0.2,1.7-0.3c0.5-0.1,0.9-0.2,1.4-0.3c0.3-0.1,0.7-0.1,1-0.2c0.7-0.1,1.5-0.3,2.2-0.5c0.1,0,0.2,0,0.3-0.1c1.5-0.3,3-0.7,4.4-1 c1.7-0.4,3.3-0.9,4.9-1.3c0.5-0.1,0.9-0.3,1.4-0.4c0.4-0.1,0.8-0.3,1.2-0.4c1.6-0.5,3.3-1.1,4.9-1.6c2.6-0.9,5.1-1.8,7.7-2.8 c0.2-0.1,0.5-0.2,0.7-0.3c0.1,0,0.1-0.1,0.2-0.1c2-0.9,4.1-1.8,6-2.8c0.1,0,0.2-0.1,0.3-0.1c0.6-0.3,1.2-0.7,1.8-1 c0.1,0,0.1-0.1,0.2-0.1c0.1-0.1,0.2-0.1,0.3-0.2c0.1-0.1,0.2-0.1,0.4-0.2c0.1,0,0.2-0.1,0.2-0.1c0.1-0.1,0.3-0.2,0.4-0.3 c0.1,0,0.1-0.1,0.2-0.1c0.2-0.1,0.3-0.2,0.5-0.3c0.1,0,0.1-0.1,0.2-0.1c0.2-0.1,0.3-0.2,0.5-0.3c0,0,0.1-0.1,0.1-0.1 c0.2-0.1,0.4-0.3,0.5-0.4c0,0,0,0,0.1,0c0.2-0.2,0.4-0.3,0.6-0.5c0,0,0.1-0.1,0.1-0.1c0.2-0.1,0.3-0.3,0.5-0.4 c0.1-0.1,0.1-0.1,0.2-0.2c0.1-0.1,0.2-0.2,0.3-0.3c0.1-0.1,0.2-0.1,0.2-0.2c0.1-0.1,0.2-0.2,0.3-0.3c0.1-0.1,0.2-0.1,0.2-0.2 c0.1-0.1,0.2-0.2,0.3-0.3c0.1-0.1,0.1-0.1,0.2-0.2c0.1-0.1,0.2-0.2,0.3-0.4c0.1-0.1,0.1-0.1,0.2-0.2c0.1-0.1,0.3-0.3,0.4-0.5 c0,0,0.1-0.1,0.1-0.1c0.2-0.2,0.3-0.4,0.5-0.6c0.1-0.1,0.3-0.3,0.4-0.4c0,0,0.1-0.1,0.1-0.1c0,0,0.1-0.1,0.1-0.1 c0,0,0.1-0.1,0.1-0.1c0,0,0.1-0.1,0.1-0.1c0,0,0-0.1,0.1-0.1c0,0,0.1-0.1,0.1-0.1c0,0,0,0,0,0c0.1-0.1,0.1-0.1,0.1-0.2c0,0,0,0,0,0 c0.3-0.5,0.6-1,0.8-1.5c0,0,0,0,0,0c0-0.1,0.1-0.1,0.1-0.2c0,0,0-0.1,0-0.1c0,0,0-0.1,0-0.1c0.1-0.2,0.1-0.4,0.2-0.7 c0-0.1,0-0.2,0-0.3c0,0,0,0,0-0.1C194.7,166.1,194.7,166,194.7,165.8z"
	  stroke="black"
      stroke-width="8"
    />
  </symbol>
</svg>
