<svg xmlns="http://www.w3.org/2000/svg">
  <symbol id="tower" viewBox="0 0 183 116">
    <path
      d="M 91.00 11.39 C 94.37 10.93 96.50 14.34 98.55 16.47 C 103.64 22.87 107.15 31.98 113.04 38.03 C 130.59 37.99 149.51 37.98 167.04 38.02 C 170.23 37.95 173.06 40.76 172.99 43.96 C 172.97 60.30 173.00 76.68 172.96 93.00 C 172.80 96.83 173.44 100.12 171.68 103.68 C 170.64 104.98 168.62 105.65 167.00 105.83 C 149.34 106.17 131.66 105.92 113.99 106.01 C 109.44 106.39 107.14 102.28 104.99 99.02 C 101.16 93.63 98.65 86.47 93.42 82.56 C 92.41 82.08 90.55 82.03 89.53 82.51 C 82.80 87.64 79.43 96.95 74.61 103.72 C 73.07 105.78 71.47 106.01 69.01 105.99 C 51.83 105.94 30.80 106.18 14.14 105.71 C 12.04 104.98 10.46 103.20 10.10 101.00 C 9.92 81.99 10.00 62.96 10.08 43.96 C 9.90 40.80 12.79 37.91 15.96 38.08 C 32.30 37.93 48.66 38.00 65.00 38.03 C 66.96 37.86 69.90 38.89 71.34 37.31 C 76.55 31.50 79.36 23.01 83.84 16.91 C 85.48 14.65 87.89 11.29 91.00 11.39 Z"
      stroke="black"
      stroke-width="1"
    />
  </symbol>

  <symbol id="bridge" viewBox="0 18 80 43">
    <path
      d="M 0.00 18.00 C 26.67 18.00 53.33 18.00 80.00 18.00 L 80.00 61.00 C 76.80 61.01 73.60 61.00 70.39 60.99 C 70.34 55.43 70.84 50.19 69.13 44.80 C 66.97 37.78 61.79 32.02 55.26 28.73 C 46.09 24.12 34.74 24.00 25.45 28.33 C 18.80 31.44 13.41 36.98 11.03 43.98 C 9.04 49.70 9.46 55.07 9.44 60.99 C 6.30 61.00 3.15 61.00 0.00 61.00 L 0.00 18.00 Z"
      stroke="black"
      stroke-width="1"
    />
  </symbol>

  <symbol id="tunnel" viewBox="20 20 160 160">
    <circle
      cx="100" cy="100" r="65"
      stroke="black"
      stroke-width="8"
    />
    <path d="M 72.78 72.30 C 72.77 74.40 72.77 76.50 72.76 78.61 C 76.02 78.63 79.29 78.65 82.56 78.68 C 82.56 76.70 82.57 74.72 82.57 72.74 C 87.12 72.76 91.67 72.75 96.23 72.76 C 96.23 74.96 96.23 77.17 96.22 79.37 C 99.29 79.38 102.36 79.39 105.42 79.39 C 105.36 77.03 105.34 74.67 105.39 72.31 C 109.76 72.36 114.17 72.12 118.51 72.46 C 118.58 75.02 118.64 77.58 118.60 80.14 C 120.65 80.14 122.71 80.13 124.76 80.14 C 124.82 77.68 124.86 75.23 124.85 72.77 C 128.95 72.74 133.04 72.74 137.14 72.77 C 137.50 79.52 137.31 86.25 137.33 93.00 C 137.26 103.28 137.60 113.59 137.14 123.85 C 130.25 124.22 123.17 124.32 116.30 123.72 C 115.89 118.44 116.49 113.22 116.37 107.95 C 116.32 103.89 113.39 99.99 110.16 97.78 C 105.68 96.21 99.65 96.13 95.06 97.13 C 90.67 99.12 85.74 103.23 85.58 108.46 C 85.31 113.76 85.51 119.08 85.39 124.39 C 78.07 124.88 70.78 124.22 63.46 124.43 C 63.06 107.08 63.29 89.68 63.33 72.32 C 66.48 72.24 69.63 72.31 72.78 72.30 Z" fill="currentColor" />
  </symbol>

  <symbol id="ferry" viewBox="0 0 100 100">
    <rect 
      x="6" y="35" width="88" height="30"
      fill="white"
      stroke="black"
      stroke-width="2"
    />
  </symbol>

  <symbol id="castle" viewBox="0 0 487.445 487.445">
    <path d="M357.738,118.549V98.766V82.925c0-4.783-3.878-8.661-8.661-8.661h-13.524c-4.783,0-8.661,3.878-8.661,8.661v10.77
      c0,2.801-2.271,5.071-5.071,5.071h-8.202c-2.801,0-5.071-2.271-5.071-5.071v-10.77c0-4.783-3.878-8.661-8.661-8.661h-13.559
      c-4.783,0-8.661,3.878-8.661,8.661v10.77c0,2.801-2.271,5.071-5.071,5.071h-8.27c-2.773,0-5.032-2.229-5.07-5.002l-0.15-10.958
      c-0.065-4.736-3.922-8.542-8.659-8.542h-13.644c-4.783,0-8.661,3.878-8.661,8.661v10.77c0,2.801-2.27,5.071-5.071,5.071h-8.202
      c-2.801,0-5.071-2.271-5.071-5.071v-10.77c0-4.783-3.878-8.661-8.661-8.661h-13.557c-4.783,0-8.661,3.878-8.661,8.661v10.77
      c0,2.801-2.271,5.071-5.071,5.071h-8.203c-2.801,0-5.071-2.271-5.071-5.071v-10.77c0-4.783-3.878-8.661-8.661-8.661h-13.541
      c-4.783,0-8.661,3.878-8.661,8.661v15.841v19.783l18.188,24.295h0.109v270.338H339.44V142.844h0.111L357.738,118.549z
      M267.596,243.81h-47.779v-40.138c0-13.186,10.691-23.883,23.891-23.883c13.201,0,23.889,10.697,23.889,23.889V243.81z"/>
    <path d="M487.033,198.133c-0.004-2.309-0.931-4.521-2.574-6.145c-1.643-1.623-3.866-2.522-6.176-2.499l-13.541,0.14
      c-4.748,0.049-8.571,3.911-8.571,8.66v10.541c0,2.8-2.271,5.07-5.071,5.07h-8.221c-2.8,0-5.07-2.271-5.07-5.07v-10.77
      c0-4.782-3.877-8.66-8.66-8.66h-13.541c-4.783,0-8.66,3.878-8.66,8.66v10.77c0,2.8-2.271,5.07-5.07,5.07h-8.19
      c-2.8,0-5.07-2.271-5.07-5.07v-10.77c0-4.782-3.877-8.66-8.66-8.66H366.4c-4.783,0-8.66,3.878-8.66,8.66v215.116h129.705
      L487.033,198.133z"/>
    <path d="M129.296,198.043c-0.009-4.777-3.884-8.645-8.661-8.645h-13.341c-4.737,0-8.596,3.807-8.66,8.543l-0.149,10.956
      c-0.037,2.773-2.296,5.002-5.07,5.002h-8.257c-2.801,0-5.071-2.27-5.071-5.071V198.06c0-4.783-3.877-8.661-8.66-8.661H57.885
      c-4.783,0-8.661,3.878-8.661,8.661v10.769c0,2.801-2.271,5.071-5.071,5.071h-8.219c-2.801,0-5.071-2.27-5.071-5.071V198.06
      c0-4.783-3.878-8.661-8.661-8.661H8.66c-4.783,0-8.66,3.878-8.66,8.661v215.121h129.709L129.296,198.043z"/>
  </symbol>
</svg>
